<?xml version="1.0" standalone="no"?>
<!DOCTYPE svg PUBLIC "-//W3C//DTD SVG 1.1//EN" "http://www.w3.org/Graphics/SVG/1.1/DTD/svg11.dtd" >
<svg>
<metadata>
Created by FontForge 20120731 at Sun Nov  9 11:45:04 2014
 By Orthosie Webhosting
 
</metadata>
<defs>
<font id="Futura_LightNormalRegular" horiz-adv-x="0" >
  <font-face 
    font-family="Futura_LightNormalRegular"
    font-weight="400"
    font-stretch="normal"
    units-per-em="1000"
    panose-1="0 0 0 0 0 0 0 0 0 0"
    ascent="800"
    descent="-200"
    x-height="374"
    cap-height="617"
    bbox="0 -203 837 747"
    underline-thickness="50"
    underline-position="-55"
    unicode-range="U+0020-2219"
  />
<missing-glyph 
 />
    <glyph glyph-name=".notdef" 
 />
    <glyph glyph-name="glyph1" 
 />
    <glyph glyph-name="glyph2" horiz-adv-x="307" 
 />
    <glyph glyph-name="glyph3" unicode=" " horiz-adv-x="307" 
 />
    <glyph glyph-name="glyph4" unicode="!" horiz-adv-x="262" 
d="M138 -19q-20 1 -31.5 13t-12.5 27v1.5v1.5v1.5v1.5q1 16 12.5 29t31.5 13t30.5 -13.5t10.5 -30.5q0 -16 -10 -29.5t-31 -13.5v-1zM113 127v504h52v-504h-52v0z" />
    <glyph glyph-name="glyph5" unicode="&#x22;" horiz-adv-x="312" 
d="M93 604h34v-232h-34v232v0zM203 604h37v-232h-37v232v0z" />
    <glyph glyph-name="glyph6" unicode="#" horiz-adv-x="735" 
d="M378 614h47l-73 -211h113l75 211h46l-73 -211h134l-13 -37h-135l-42 -120h146l-13 -39h-147l-74 -207h-47l74 207h-115l-74 -207h-47l74 207h-141l12 39h141l43 120h-151l13 37h152l75 211v0zM451 366h-115l-41 -120h115l41 120v0z" />
    <glyph glyph-name="glyph7" unicode="$" horiz-adv-x="535" 
d="M292 -69h-35v72q-61 2 -100 30t-66 83l49 24q17 -43 45 -64t72 -27v267q-7 4 -15 8t-15 8q-36 19 -67.5 46.5t-38.5 70.5q-1 3 -1.5 6t-0.5 5q0 5 -0.5 9t-0.5 8q0 57 42 93.5t97 46.5v42h35v-42q43 -6 71 -21.5t53 -52.5l-46 -25q-13 23 -32.5 35.5t-45.5 16.5v-214
q3 -1 5.5 -2.5t4.5 -2.5q56 -29 98.5 -65t42.5 -109q0 -70 -41.5 -117t-109.5 -60v-69v0zM391 165v6q0 48 -29 77.5t-70 51.5v-251q46 8 71.5 39t27.5 77v0zM257 570q-28 -6 -50 -24t-30 -47q0 -2 -0.5 -4.5t-1.5 -5.5v0v-1q-1 -4 -1.5 -7.5t-0.5 -6.5q0 -37 26.5 -61
t57.5 -41v198v0z" />
    <glyph glyph-name="glyph8" unicode="%" horiz-adv-x="796" 
d="M198 -14l355 637h45l-353 -637h-47v0zM603 -11q-4 0 -9 -0.5t-10 -0.5q-5 -1 -10 -1h-9h-7.5t-7.5 1q-12 1 -23 4.5t-20 7.5q-32 17 -48 51.5t-19 72.5v6.5v6.5q0 7 0.5 14t1.5 14q1 15 4.5 30.5t8.5 27.5q14 35 45.5 55t66.5 20q6 0 12.5 -0.5t13.5 -2.5q10 -2 21 -6
t20 -11q24 -19 37 -48.5t17 -61.5q0 -6 0.5 -12.5t0.5 -12.5q0 -18 -2 -35t-7 -33q-8 -30 -27 -53.5t-50 -31.5v-1zM639 141q0 10 -0.5 21t-2.5 23q-5 27 -18.5 50t-42.5 24h-10q-36 0 -52 -27.5t-20 -59.5q-1 -8 -1.5 -16t-0.5 -15v-6q0 -8 1 -17t2 -19q6 -29 22.5 -54
t48.5 -25q1 0 2 0.5t2 0.5t2 0.5t2 0.5q29 3 43.5 26t19.5 51l2 22t1 20v0zM176 322q-31 16 -47.5 49.5t-19.5 69.5q-1 5 -1 10.5v10.5q0 7 0.5 14t1.5 14q2 15 6 30.5t8 27.5q12 32 41.5 52t63.5 23h4h4q7 0 14.5 -1t14.5 -2q10 -3 20 -7t19 -10q22 -18 34.5 -46.5
t16.5 -59.5q1 -7 1.5 -15t0.5 -16v-11t-1 -12q-1 -11 -2.5 -22t-4.5 -21q-12 -43 -45 -69t-71 -26q-7 0 -14.5 1t-14.5 3q-7 3 -14.5 6t-14.5 7v0zM245 584h-10q-35 0 -51 -26t-20 -57q-1 -9 -1.5 -18t-0.5 -17v-8q0 -8 0.5 -16.5t2.5 -16.5q4 -30 20 -55t49 -25l1.5 0.5
t3.5 0.5q1 0 2.5 0.5l1.5 0.5q29 3 43.5 26t19.5 51l2 22t1 20q0 10 -1 21t-3 22q-5 27 -18.5 50t-41.5 25v0z" />
    <glyph glyph-name="glyph9" unicode="&#x26;" horiz-adv-x="695" 
d="M535 0l-77 91q-36 -40 -86 -68t-102 -31h-4.5h-4.5q-10 0 -20 1t-20 3q-17 4 -34 10.5t-32 17.5q-30 23 -48.5 59.5t-18.5 75.5q0 4 0.5 8.5t1.5 9.5q0 2 0.5 4.5t0.5 4.5q1 3 1.5 5t0.5 4q11 49 45.5 82.5t74.5 61.5q7 5 14.5 10t14.5 10q-4 5 -8 10.5t-8 11.5
q-21 27 -38.5 56t-17.5 62q0 4 0.5 8t1.5 8v1.5v1.5q1 4 1.5 7t0.5 6q12 40 45.5 60t71.5 21h2h2h5.5h5.5q45 -3 83 -32t38 -81q0 -48 -30.5 -80.5t-67.5 -57.5q-4 -3 -8.5 -5.5t-8.5 -5.5l153 -188q19 25 37.5 50t34.5 52l38 -22q-20 -31 -41 -60t-44 -58l107 -124h-62v0z
M168 242q-9 -12 -15.5 -26.5t-9.5 -29.5q-1 -6 -1.5 -11.5t-0.5 -11.5q0 -5 0.5 -11t2.5 -12q2 -11 7 -22t11 -21q17 -29 47 -46.5t64 -17.5q1 0 2.5 0.5t2.5 0.5q2 0 3 0.5t2 0.5q42 3 75 27.5t61 53.5l5.5 5.5l5.5 5.5l-162 196q-5 -4 -10.5 -7.5t-10.5 -7.5
q-3 -2 -6 -3.5t-5 -3.5q-19 -13 -37 -27t-31 -32v0zM320 570h-3.5t-5.5 1h-0.5h-0.5h-5h-4h-4h-4q-26 -3 -47.5 -20t-22.5 -46l-0.5 -1t-0.5 -2q0 -2 -0.5 -3l-0.5 -1q0 -23 13 -45.5t29 -42.5l12 -14t11 -13q6 4 12 8.5t13 9.5q21 15 39.5 34t24.5 44q0 2 0.5 4.5t0.5 4.5
t0.5 4t0.5 4q0 25 -15.5 46.5t-41.5 27.5v0z" />
    <glyph glyph-name="glyph10" unicode="'" horiz-adv-x="212" 
d="M96 604h34v-232h-34v232v0z" />
    <glyph glyph-name="glyph11" unicode="(" horiz-adv-x="353" 
d="M272 625q-36 -79 -58.5 -163t-28.5 -168q-2 -17 -2.5 -34t-0.5 -34v-20t1 -20q4 -89 26.5 -176.5t62.5 -171.5l-38 -25q-40 83 -65 169.5t-33 175.5l-2 38t-1 38v17.5t1 17.5q4 96 29.5 191.5t70.5 184.5l38 -20v0z" />
    <glyph glyph-name="glyph12" unicode=")" horiz-adv-x="364" 
d="M75 625l38 20q43 -84 67.5 -174t29.5 -181q1 -14 1.5 -28t0.5 -28v-12.5v-13.5q-3 -102 -28.5 -202t-70.5 -192l-38 23q45 92 66.5 189.5t21.5 196.5q0 28 -1.5 56.5t-5.5 56.5q-9 74 -29.5 147t-51.5 142v0z" />
    <glyph glyph-name="glyph13" unicode="*" horiz-adv-x="455" 
d="M116 391l-19 33l99 52l-99 55l19 31l96 -61l-3 116h37l-3 -116l96 61l19 -31l-97 -55l97 -52l-20 -33l-95 58l3 -111h-36l2 111l-96 -58v0z" />
    <glyph glyph-name="glyph14" unicode="+" horiz-adv-x="575" 
d="M272 513h33v-238h235v-35h-235v-240h-33v240h-236v35h236v238v0z" />
    <glyph glyph-name="glyph15" unicode="," horiz-adv-x="303" 
d="M171 107l63 -25l-112 -215l-36 15l85 225v0z" />
    <glyph glyph-name="glyph16" unicode="-" horiz-adv-x="312" 
d="M58 214h185v-55h-185v55v0z" />
    <glyph glyph-name="glyph17" unicode="." horiz-adv-x="262" 
d="M181 27q0 -20 -13.5 -30t-30.5 -10q-16 0 -30 10t-14 30q0 21 14 31.5t30 10.5q17 0 30.5 -10.5t13.5 -31.5v0z" />
    <glyph glyph-name="glyph18" unicode="/" horiz-adv-x="543" 
d="M400 631h46l-303 -709h-44l301 709v0z" />
    <glyph glyph-name="glyph19" unicode="0" horiz-adv-x="556" 
d="M278 -14q-96 1 -141 72t-58 157q-4 24 -5.5 46.5t-1.5 44.5v5.5t1 4.5v3v3q0 4 0.5 7.5t0.5 6.5q1 17 2.5 34.5t4.5 35.5q14 81 59.5 149t135.5 68h6.5h7.5q3 -1 6.5 -1h6.5q87 -10 126 -81t50 -154q3 -22 4 -43.5t1 -42.5v-6.5v-7.5q0 -14 -0.5 -27.5t-1.5 -25.5
q-1 -10 -2.5 -20.5t-2.5 -21.5q-15 -77 -62 -141t-136 -64l-1 -1v0zM316 568q-2 1 -4.5 1.5t-5.5 0.5q-7 1 -14.5 2t-13.5 1q-62 0 -94.5 -52t-44.5 -115q-5 -28 -7.5 -54.5t-2.5 -48.5t1.5 -47.5t6.5 -51.5q11 -63 43.5 -116t100.5 -53q69 0 100 53t41 116q4 26 5.5 51.5
t1.5 47.5t-2 50.5t-7 58.5q-9 53 -33 99t-71 57v0z" />
    <glyph glyph-name="glyph20" unicode="1" horiz-adv-x="312" 
d="M174 0v562h-111l26 49h139v-611h-54v0z" />
    <glyph glyph-name="glyph21" unicode="2" horiz-adv-x="565" 
d="M476 49v-49h-396l134 146q17 19 40 43t47 51q18 20 35.5 41.5t32.5 42.5q18 27 31 54t16 51v18q0 55 -42 89.5t-95 34.5h-7.5t-7.5 -1q-15 -1 -30 -6t-28 -13q-33 -21 -45 -54t-13 -70h-55q1 54 17.5 97t65.5 73q17 9 35.5 14.5t37.5 8.5q10 2 19.5 2.5t18.5 0.5h14.5
t15.5 -1t15.5 -2t14.5 -3q65 -15 96.5 -58t35.5 -108v-11q0 -55 -31 -103.5t-69 -89.5q-12 -14 -25 -27.5t-24 -26.5l-137 -144h283v0z" />
    <glyph glyph-name="glyph22" unicode="3" horiz-adv-x="556" 
d="M141 155q6 -44 25.5 -74.5t65.5 -41.5q6 -1 13 -2.5t14 -2.5q5 0 10 -0.5t10 -0.5h6h6q30 2 58 15t45 40q8 14 13 31t7 34v6v6q0 7 -0.5 14t-2.5 14q-3 17 -10 33.5t-18 29.5q-19 20 -43 28.5t-50 9.5q-6 1 -11.5 1h-10.5h-15v54q3 0 6 -0.5t6 -0.5q2 0 5 -0.5t6 -0.5
q6 0 12 0.5t11 0.5q25 3 48 12.5t38 31.5q8 12 12.5 27t5.5 31v4.5v5.5q0 5 -0.5 10.5t-1.5 10.5q-2 16 -8 30.5t-16 25.5q-14 15 -33.5 24t-39.5 11q-5 0 -9.5 0.5t-8.5 0.5h-5.5h-5.5q-8 -1 -15.5 -2t-14.5 -3q-37 -9 -54 -33t-25 -59h-59q9 54 35 88.5t82 50.5q5 2 11 3
t11 2q9 1 17 1.5t16 0.5h1.5h1.5q67 -1 123.5 -44t56.5 -113q0 -10 -1.5 -20t-3.5 -21q-10 -41 -38 -65.5t-64 -38.5q50 -17 82 -52.5t36 -91.5v-10v-6v-6q-4 -49 -30.5 -92.5t-73.5 -61.5q-16 -4 -34.5 -8t-36.5 -6q-6 0 -11.5 -0.5t-10.5 -0.5q-8 0 -16.5 0.5t-17.5 2.5
q-20 2 -39.5 7.5t-36.5 12.5q-40 20 -60 59.5t-24 82.5v2.5v2.5h59v0z" />
    <glyph glyph-name="glyph23" unicode="4" horiz-adv-x="535" 
d="M349 0v157h-278l334 474v-427h63v-47h-63v-157h-56v0zM154 204h195l1 280l-196 -280v0z" />
    <glyph glyph-name="glyph24" unicode="5" horiz-adv-x="556" 
d="M187 372q16 7 32.5 11t33.5 7q8 1 16.5 1.5t16.5 0.5q11 0 22.5 -1.5t23.5 -3.5q17 -4 34 -11.5t33 -17.5q34 -26 52.5 -64.5t21.5 -79.5q1 -5 1 -9.5v-9.5q0 -7 -0.5 -15t-1.5 -16q-2 -12 -4.5 -24t-5.5 -22q-22 -66 -77.5 -98.5t-120.5 -32.5l-25 -1q-61 8 -97.5 36.5
t-66.5 77.5l43 35q27 -45 60 -73.5t86 -28.5l1.5 0.5t3.5 0.5q1 0 2.5 0.5l1.5 0.5q68 1 105.5 46t37.5 109v5q0 74 -48 112t-107 38q-9 0 -17.5 -1t-17.5 -2q-24 -5 -47.5 -15t-43.5 -27l-17 1l78 310h250v-47h-211l-48 -192v0z" />
    <glyph glyph-name="glyph25" unicode="6" horiz-adv-x="524" 
d="M168 339q19 11 40.5 17.5t43.5 8.5q5 1 9.5 1h8.5q54 0 102 -29.5t64 -88.5q2 -6 3.5 -12.5t2.5 -13.5q2 -10 3 -21t1 -20q0 -67 -40.5 -122.5t-113.5 -68.5q-5 -1 -10.5 -2t-11.5 -1q-7 -1 -14.5 -1.5t-13.5 -0.5q-78 0 -131.5 50.5t-53.5 137.5l-2 3q0 62 30 117.5
t66 106.5q7 9 13.5 17.5t12.5 17.5l143 199l47 -26l-199 -269v0zM392 184q0 52 -38.5 92.5t-94.5 40.5h-9q-61 -4 -99 -47t-38 -100t33 -100t97 -43h2.5t2.5 1h3h2q66 4 101 49t38 98v4.5v4.5v0z" />
    <glyph glyph-name="glyph26" unicode="7" horiz-adv-x="504" 
d="M80 9l281 555h-298v47h380l-311 -628l-52 26v0z" />
    <glyph glyph-name="glyph27" unicode="8" horiz-adv-x="556" 
d="M204 333q-45 16 -70.5 51.5t-28.5 74.5v4.5v4.5v6.5t1 6.5q5 53 50.5 97.5t126.5 44.5h15q65 -3 110.5 -47.5t45.5 -109.5q0 -52 -27.5 -84t-71.5 -49q58 -19 89.5 -63t31.5 -104v-11q-6 -85 -60 -126.5t-137 -41.5q-79 0 -134.5 41.5t-61.5 126.5v2.5v2.5v1.5v0.5
q-1 2 -1 3.5v2.5q0 60 32 103t90 62v0zM320 300q-3 0 -6.5 0.5t-6.5 0.5t-5.5 0.5t-4.5 0.5q-5 1 -9.5 1h-8.5q-46 0 -86.5 -26t-49.5 -78q0 -3 -0.5 -7t-0.5 -7q-1 -4 -1.5 -8t-0.5 -7q0 -59 37.5 -97t101.5 -38q70 0 104 40.5t35 89.5v1.5v1.5v3.5v3.5q-2 42 -26.5 78.5
t-71.5 46.5v0zM163 488q0 -2 -0.5 -5t-0.5 -6q-1 0 -1 -0.5v-1.5q0 -2 -0.5 -4.5t-0.5 -4.5q0 -42 35 -76.5t84 -36.5h1.5h1.5q1 -1 1.5 -1h0.5q48 0 79 29.5t34 64.5v3.5v2.5v11q0 5 -0.5 9.5t-0.5 9.5q-5 30 -25.5 56.5t-56.5 31.5h-6.5t-6.5 1h-7.5h-6.5h-4.5h-5.5
q-39 -2 -72.5 -22.5t-41.5 -60.5v0z" />
    <glyph glyph-name="glyph28" unicode="9" horiz-adv-x="524" 
d="M353 267q-15 -9 -31.5 -15.5t-33.5 -10.5q-10 -2 -19.5 -3t-18.5 -1q-55 0 -101.5 31t-63.5 90q-2 6 -3.5 11.5t-2.5 10.5q-2 11 -3.5 22.5t-1.5 21.5q0 68 41.5 123.5t115.5 69.5q13 2 25.5 3.5t24.5 1.5q77 0 131 -50.5t54 -136.5v-5q0 -64 -30.5 -120t-66.5 -105
l-12 -16l-12 -16l-142 -201l-48 28l198 267v0zM273 289q60 6 98.5 48t38.5 101q0 56 -33.5 98t-98.5 42h-8q-65 -2 -101 -46t-40 -96v-5.5v-5.5l1 -3q0 -52 38 -93.5t94 -41.5q1 0 2.5 0.5t3.5 0.5q1 0 2.5 0.5t2.5 0.5v0z" />
    <glyph glyph-name="glyph29" unicode=":" horiz-adv-x="262" 
d="M182 24q0 -20 -13.5 -30t-30.5 -10q-16 0 -30 10t-14 30q0 21 14 31.5t30 10.5q17 0 30.5 -10.5t13.5 -31.5v0zM94 319q0 21 14 31.5t30 10.5q17 0 30.5 -10.5t13.5 -31.5q0 -22 -13.5 -32.5t-30.5 -10.5q-16 0 -30 10.5t-14 32.5v0z" />
    <glyph glyph-name="glyph30" unicode=";" horiz-adv-x="344" 
d="M185 107l63 -25l-111 -215l-37 15l85 225v0zM218 272q-16 0 -30 11t-14 33q0 21 14 31.5t30 10.5q17 0 30.5 -10.5t13.5 -31.5q0 -22 -13.5 -33t-30.5 -11v0z" />
    <glyph glyph-name="glyph31" unicode="&#x3c;" horiz-adv-x="595" 
d="M542 474v-38l-442 -179l442 -179v-37l-496 204v25l496 204v0z" />
    <glyph glyph-name="glyph32" unicode="=" horiz-adv-x="543" 
d="M6 163v35h504v-35h-504v0zM6 350h504v-33h-504v33v0z" />
    <glyph glyph-name="glyph33" unicode="&#x3e;" horiz-adv-x="595" 
d="M46 474l496 -204v-25l-496 -204v37l439 179l-439 179v38v0z" />
    <glyph glyph-name="glyph34" unicode="?" horiz-adv-x="465" 
d="M237 72q19 0 29.5 -13t11.5 -29v-1.5v-1.5v-1.5v-1.5q-1 -15 -11.5 -27t-29.5 -12q-22 0 -33.5 13.5t-11.5 29.5q1 17 12 30.5t33 13.5v0zM146 462h-49v2.5v3.5q-1 1 -1 2v2v2v2q0 5 0.5 10t0.5 10q3 28 15 55t34 46q16 13 37 21.5t43 11.5q6 0 11.5 0.5t10.5 0.5
q6 0 13 -0.5t14 -1.5q9 -1 17.5 -2.5t15.5 -4.5q41 -16 62 -51.5t21 -75.5v-8.5t-1 -8.5q-3 -31 -18 -59.5t-41 -46.5q-12 -9 -31 -21t-39 -25q-10 -7 -20 -13.5t-19 -12.5q-13 -10 -24 -20t-16 -19q-2 -4 -3.5 -9t-2.5 -9q-2 -5 -2.5 -10t-0.5 -9q0 -29 22 -48t51 -19
q5 0 10.5 1t11.5 2q8 2 15.5 5.5t13.5 7.5q17 11 21 29.5t4 37.5h48v-7.5t-1 -6.5q-1 -24 -7 -46.5t-26 -38.5q-15 -12 -34.5 -20t-39.5 -10q-4 -1 -8 -1h-8q-48 0 -87.5 30t-39.5 84q2 47 29 77t64 52q10 7 21.5 13.5t23.5 14.5q28 17 52 39.5t27 55.5v12q0 39 -29.5 64.5
t-64.5 25.5q-6 0 -12 -1l-12 -2q-7 -2 -13 -4.5t-12 -5.5q-26 -16 -34.5 -40.5t-11.5 -50.5q0 -3 -0.5 -6t-0.5 -6v0z" />
    <glyph glyph-name="glyph35" unicode="@" horiz-adv-x="898" 
d="M553 61q-18 8 -25 22.5t-8 30.5v2.5v2.5v2.5t1 3.5v2.5v2.5q-18 -31 -45 -49.5t-55 -25.5q-8 -1 -15.5 -2t-14.5 -1q-48 0 -87 35t-39 103q0 1 0.5 2.5t0.5 3.5v0.5v1.5q1 1 1 2.5v2.5q0 3 0.5 6t0.5 5q7 77 58 141.5t134 65.5q39 0 66.5 -18.5t41.5 -53.5l25 54h35
l-58 -233q-1 -4 -2 -9t-3 -10q0 -2 -0.5 -3t-0.5 -3q-2 -5 -3 -10.5t-1 -10.5q0 -2 0.5 -4t0.5 -4q1 -4 3 -8l4 -8q5 -7 13.5 -10.5t18.5 -4.5h4h4q4 0 8.5 0.5t8.5 1.5q9 1 18.5 4t17.5 7q1 0 2.5 0.5t2.5 1.5q56 25 85.5 80t35.5 116q0 7 0.5 14.5t0.5 14.5t-0.5 14.5
t-0.5 15.5q-1 8 -2 15.5t-2 14.5q-18 84 -90 132.5t-155 58.5q-3 1 -6.5 1.5t-7.5 0.5h-9t-10 1h-3.5h-3.5h-6.5h-6.5q-93 0 -178 -41.5t-137 -123.5q-22 -35 -36.5 -77.5t-18.5 -86.5q-1 -8 -1.5 -16.5t-0.5 -16.5q0 -57 19.5 -111t59.5 -95q50 -49 117.5 -72t137.5 -23
q12 0 23.5 0.5t23.5 1.5q61 6 119.5 26.5t105.5 53.5l13 -22q-51 -35 -113 -58t-127 -29q-13 -2 -25.5 -2.5t-25.5 -0.5q-74 0 -145 24.5t-126 76.5q-51 45 -75 106.5t-24 127.5q0 11 0.5 22t2.5 22q6 54 26 105t54 92q60 74 148 110.5t182 36.5q13 0 27.5 -0.5t28.5 -2.5
q12 -1 23.5 -2.5t22.5 -3.5q102 -22 174 -94t72 -183q0 -8 -0.5 -16.5t-1.5 -16.5q-7 -63 -41 -121.5t-92 -90.5q-13 -7 -30 -13t-35 -9q-8 -2 -17 -3t-17 -1q-10 0 -19.5 2t-18.5 5q-2 0 -3.5 1t-3.5 1v0zM559 303q-7 37 -31.5 61t-62.5 25h-3q-56 0 -91.5 -40.5
t-47.5 -89.5q0 -1 -0.5 -1.5t-0.5 -1.5q-4 -18 -7.5 -35t-3.5 -31q0 -54 28.5 -81t63.5 -27q6 0 12.5 1t13.5 2q33 8 63 36.5t42 74.5l25 107v0z" />
    <glyph glyph-name="glyph36" unicode="A" horiz-adv-x="565" 
d="M17 0l269 642l259 -642h-60l-80 209h-251l-82 -209h-55v0zM388 257l-105 269l-110 -269h215v0z" />
    <glyph glyph-name="glyph37" unicode="B" horiz-adv-x="474" 
d="M77 0v617h121h22.5t23.5 -1q25 -2 49 -8.5t45 -20.5q27 -19 42.5 -49t18.5 -63v-6v-6q0 -43 -23.5 -82t-70.5 -53q60 -12 92 -59t32 -101q0 -6 -0.5 -11.5t-0.5 -10.5q-5 -34 -22.5 -65.5t-49.5 -52.5q-22 -13 -48 -18.5t-53 -7.5q-14 -1 -28 -1.5t-28 -0.5h-122v0z
M370 171q0 81 -47 102.5t-106 21.5h-22h-21q-11 -1 -21.5 -1h-20.5v-245q9 0 18.5 -0.5t19.5 -0.5h4h4q8 -1 16 -1h15q61 0 111 21t50 103v0zM132 568v-226h15.5h15.5q8 -1 16.5 -1h16.5h4h4q52 1 94.5 19t43.5 84v10q0 77 -44.5 95.5t-102.5 18.5h-63v0z" />
    <glyph glyph-name="glyph38" unicode="C" horiz-adv-x="615" 
d="M568 504q-46 37 -94.5 57t-104.5 20q-7 0 -15 -0.5t-16 -1.5h-2h-2q-4 0 -8.5 -0.5t-8.5 -0.5q-99 -18 -154.5 -95.5t-55.5 -176.5q0 -106 64 -183t173 -87h6h7q3 -1 6 -1h6q53 0 104 20t94 52l-2 -66q-30 -17 -62.5 -29t-65.5 -17q-18 -4 -36 -5.5t-35 -1.5
q-118 0 -213 72.5t-106 214.5v7v9q-1 4 -1 8v7q0 119 70.5 208t192.5 111l16 2t17 2q8 1 16 1.5t16 0.5h8h8q48 -3 94.5 -19.5t86.5 -46.5l-3 -61v0z" />
    <glyph glyph-name="glyph39" unicode="D" horiz-adv-x="584" 
d="M66 0v617h129q15 0 30.5 -0.5t30.5 -0.5q55 -3 108 -18t93 -55q37 -37 58.5 -92t26.5 -113q0 -8 0.5 -16t0.5 -16q0 -66 -21 -128t-64 -104q-46 -44 -103.5 -57.5t-116.5 -15.5q-13 -1 -26.5 -1h-26.5h-119v0zM121 49q12 0 24.5 -0.5t25.5 -0.5q13 -1 26.5 -1.5
t26.5 -0.5h16.5t16.5 1q37 2 71.5 10t60.5 26q43 32 64 81.5t27 101.5q1 11 1.5 21.5t0.5 21.5t-0.5 22.5t-1.5 22.5q-6 52 -28 101t-66 80q-30 19 -67.5 26t-76.5 9h-14h-14h-93v-521v0z" />
    <glyph glyph-name="glyph40" unicode="E" horiz-adv-x="424" 
d="M72 0v617h305v-52h-250v-193h250v-53h-250v-267h250v-52h-305v0z" />
    <glyph glyph-name="glyph41" unicode="F" horiz-adv-x="344" 
d="M72 0v617h305v-52h-250v-193h240v-53h-240v-319h-55v0z" />
    <glyph glyph-name="glyph42" unicode="G" horiz-adv-x="706" 
d="M589 462q-39 56 -93.5 86.5t-121.5 30.5h-15q-112 -2 -179 -84t-67 -190l2 -4q1 -126 77.5 -193.5t168.5 -72.5h6.5h7.5q86 0 157.5 56t75.5 165h-214v49h275v-8q0 -11 -0.5 -22.5t-1.5 -22.5q-6 -58 -29.5 -112.5t-69.5 -90.5q-34 -29 -77.5 -44t-88.5 -19
q-7 0 -13.5 -0.5t-13.5 -0.5t-14 0.5t-14 0.5q-69 6 -132 36.5t-102 84.5q-29 42 -45 92t-16 102v6v6q3 100 59 188t157 116q13 3 26.5 6t26.5 4q13 2 26.5 3t26.5 1h3.5h2.5q74 -1 141.5 -34t106.5 -101l-39 -34v0z" />
    <glyph glyph-name="glyph43" unicode="H" horiz-adv-x="584" 
d="M80 0v617h55v-250h336v250h56v-617h-56v319h-336v-319h-55v0z" />
    <glyph glyph-name="glyph44" unicode="I" horiz-adv-x="182" 
d="M77 0v617h55v-617h-55v0z" />
    <glyph glyph-name="glyph45" unicode="J" horiz-adv-x="323" 
d="M214 170v447h56v-484q0 -56 -23 -97t-87 -48h-5t-6 -1h-7h-5q-36 0 -67 15.5t-51 46.5l41 34l1.5 -1.5t0.5 -1.5q14 -16 33.5 -30t41.5 -14q2 0 5 0.5t7 1.5q1 0 3 0.5t3 0.5q33 8 44.5 33.5t13.5 54.5q1 9 1 18v17v8v0z" />
    <glyph glyph-name="glyph46" unicode="K" horiz-adv-x="556" 
d="M85 0v617h55v-289l279 289h72l-292 -295l306 -322h-80l-285 314v-314h-55v0z" />
    <glyph glyph-name="glyph47" unicode="L" horiz-adv-x="383" 
d="M80 0v617h55v-565h212v-52h-267v0z" />
    <glyph glyph-name="glyph48" unicode="M" horiz-adv-x="735" 
d="M364 -22l-216 493l-48 -471h-58l85 644l236 -550l245 550l80 -644h-58l-46 471l-220 -493v0z" />
    <glyph glyph-name="glyph49" unicode="N" horiz-adv-x="615" 
d="M80 0v644l436 -518v491h52v-634l-436 516v-499h-52v0z" />
    <glyph glyph-name="glyph50" unicode="O" horiz-adv-x="746" 
d="M683 184q-39 -94 -125 -145.5t-181 -51.5q-8 0 -15.5 0.5t-15.5 0.5q-32 3 -63 11.5t-60 22.5q-81 42 -127.5 121t-46.5 166q0 16 2 32t5 32q5 23 13 45.5t19 43.5q44 81 124 125t168 44q14 0 29 -1t29 -4q32 -6 64 -17.5t60 -29.5q64 -43 101.5 -112t41.5 -143
q1 -5 1 -9.5v-9.5q0 -31 -5.5 -61.5t-17.5 -59.5v0zM119 386q-3 -10 -5 -22l-4 -24q-1 -8 -1.5 -15.5t-0.5 -15.5q0 -94 60 -173t157 -97q5 -1 10.5 -2t10.5 -1q8 -2 16 -2.5t15 -0.5q80 0 150 46.5t101 123.5q10 24 14.5 50t4.5 52v5.5v5.5q-3 70 -40 134t-102 99
q-22 12 -46 19.5t-48 10.5q-9 1 -17 1.5t-16 0.5q-85 0 -159 -53t-100 -142v0z" />
    <glyph glyph-name="glyph51" unicode="P" horiz-adv-x="374" 
d="M72 0v617h123h22t22 -1q30 -2 59 -10.5t51 -29.5t33.5 -52t14.5 -63v-7.5v-6.5v-16.5t-1 -16.5q-16 -96 -81 -117.5t-142 -21.5h-11t-12 1h-12h-11v-276h-55v0zM127 327q6 0 13 -0.5t15 -0.5h4.5h5.5q4 -1 9 -1h10h4.5h4.5q53 1 97 19.5t48 87.5v12q0 85 -53.5 104.5
t-118.5 19.5h-39v-241v0z" />
    <glyph glyph-name="glyph52" unicode="Q" horiz-adv-x="746" 
d="M702 -41h-68l-74 85q-37 -22 -80 -35t-87 -16q-7 0 -14.5 -0.5t-14.5 -0.5q-47 0 -92.5 11t-86.5 36q-69 45 -106 113.5t-41 141.5v6.5v7.5q0 9 0.5 18.5t1.5 18.5q7 60 36.5 116t82.5 98q39 32 85.5 49.5t94.5 21.5q6 1 12.5 1h12.5h2h2q102 -1 192 -61t123 -168
q2 -6 3.5 -12.5t2.5 -12.5q4 -19 6 -37.5t2 -34.5q0 -63 -26 -120t-73 -107l104 -119v0zM218 82q30 -20 65 -32t72 -15h6.5h7.5q10 0 20 1l20 2q31 5 60.5 17t53.5 31l-143 167h69l115 -134q35 41 54 89t19 100q0 10 -1 21.5t-3 23.5q-1 9 -3 18l-4 18q-25 90 -100 141
t-160 51q-11 0 -22 -1t-22 -3q-33 -6 -65.5 -20t-60.5 -37q-42 -35 -66.5 -83t-30.5 -99q-1 -8 -1.5 -15.5t-0.5 -14.5v-3.5v-3.5q2 -63 33 -122.5t88 -96.5v0z" />
    <glyph glyph-name="glyph53" unicode="R" horiz-adv-x="484" 
d="M451 0h-68l-217 294h-34v-294h-55v617h113h14.5t14.5 -1q37 -2 71.5 -12.5t58.5 -39.5q16 -18 25.5 -42t12.5 -48q0 -6 0.5 -11.5t0.5 -11.5v-19q-4 -67 -49.5 -102.5t-109.5 -35.5l222 -294v0zM132 341q6 0 13 -0.5t14 -0.5t14 -0.5t14 -0.5h4h4q50 1 91.5 18.5
t41.5 82.5q0 80 -41.5 103t-90.5 25h-10h-10h-44v-227v0z" />
    <glyph glyph-name="glyph54" unicode="S" horiz-adv-x="454" 
d="M53 104l49 26q12 -34 33 -59t58 -33q2 0 4 -0.5t5 -1.5q2 0 4 -0.5t5 -0.5q4 -1 8.5 -1.5t8.5 -0.5q54 0 89 39t35 91q0 3 -0.5 6.5t-0.5 7.5q0 3 -0.5 6.5t-0.5 6.5q-7 38 -31.5 61.5t-57.5 42.5q-1 1 -2.5 1.5t-3.5 1.5q-10 5 -21.5 10.5t-22.5 10.5q-29 15 -56 33.5
t-47 45.5q-10 15 -17 32t-9 35q-1 5 -1.5 10t-0.5 10q0 7 1 14.5t2 14.5q2 9 5 18t6 17q19 42 56 62t78 20q7 0 14.5 -0.5t15.5 -2.5q35 -6 67.5 -25t51.5 -49l-44 -26q-12 22 -34.5 35.5t-47.5 16.5q-5 1 -10 1.5t-10 0.5q-31 0 -56.5 -16.5t-33.5 -51.5q0 -3 -0.5 -6
t-1.5 -6v-2v-1q-1 -5 -1.5 -9t-0.5 -7q0 -49 37 -77.5t82 -50.5q4 -3 9 -5t9 -5q15 -7 28.5 -14.5t25.5 -15.5q33 -24 53 -62.5t23 -80.5q1 -4 1 -8.5v-8.5v-6.5v-7.5q-3 -34 -18 -66t-43 -54q-16 -13 -38 -20t-44 -11q-9 -1 -17.5 -1.5t-16.5 -0.5h-8t-8 1q-12 0 -23.5 2
t-22.5 5q-42 10 -68.5 40t-44.5 69v0z" />
    <glyph glyph-name="glyph55" unicode="T" horiz-adv-x="414" 
d="M217 0v565h-170v52h396v-52h-170v-565h-56v0z" />
    <glyph glyph-name="glyph56" unicode="U" horiz-adv-x="575" 
d="M77 617h55v-403q0 -85 39.5 -132t128.5 -47q37 0 71 10t59 37q26 27 32.5 61.5t6.5 70.5v403h55v-391q0 -109 -52 -174t-172 -65t-171.5 66.5t-51.5 178.5v385v0z" />
    <glyph glyph-name="glyph57" unicode="V" horiz-adv-x="513" 
d="M284 -22l-238 639h62l178 -502l188 502h61l-251 -639v0z" />
    <glyph glyph-name="W" unicode="W" horiz-adv-x="797" 
d="M267 -22l-214 639h60l154 -493l165 518l169 -513l148 488h58l-206 -639l-169 523l-165 -523v0z" />
    <glyph glyph-name="glyph59" unicode="X" horiz-adv-x="554" 
d="M121 0h-60l187 323l-170 294h62l139 -245l140 245h61l-169 -290l187 -327h-62l-158 273l-157 -273v0z" />
    <glyph glyph-name="glyph60" unicode="Y" horiz-adv-x="485" 
d="M259 0v284l-202 333h65l167 -283l166 283h63l-202 -333v-284h-57v0z" />
    <glyph glyph-name="glyph61" unicode="Z" horiz-adv-x="554" 
d="M57 0l367 565h-314v52h410l-365 -565h327v-52h-425v0z" />
    <glyph glyph-name="glyph62" unicode="[" horiz-adv-x="333" 
d="M129 631h122v-41h-72v-720h72v-43h-122v804v0z" />
    <glyph glyph-name="glyph63" unicode="\" horiz-adv-x="505" 
d="M381 -78l-301 709h44l303 -709h-46v0z" />
    <glyph glyph-name="glyph64" unicode="]" horiz-adv-x="342" 
d="M196 631v-804h-124v43h76v720h-76v41h124v0z" />
    <glyph glyph-name="glyph65" unicode="^" horiz-adv-x="424" 
d="M83 435l90 147h62l90 -147h-39l-82 105l-82 -105h-39v0z" />
    <glyph glyph-name="glyph66" unicode="_" horiz-adv-x="433" 
d="M0 -168h432v-35h-432v35v0z" />
    <glyph glyph-name="glyph67" unicode="`" horiz-adv-x="212" 
d="M96 604h34v-232h-34v232v0z" />
    <glyph glyph-name="glyph68" unicode="a" horiz-adv-x="465" 
d="M361 0v69q-21 -41 -53 -61.5t-80 -20.5q-73 0 -120 46t-55 116q0 2 -0.5 4.5t-0.5 5.5v1.5v1.5q-1 7 -1.5 13.5t-0.5 11.5q0 90 51.5 143t113.5 58h5.5h5.5q6 0 11.5 -0.5t10.5 -1.5q33 -4 63 -24t50 -56v68h52v-374h-52v0zM108 182v-2.5v-3.5q1 -55 29 -100.5t89 -45.5
h1.5h0.5h1v1h2h1q61 3 93.5 50t35.5 102v4.5v4.5v4v5q-2 51 -32 95t-89 45h-8q-62 0 -92.5 -49t-31.5 -107v-1.5v-1.5v0z" />
    <glyph glyph-name="glyph69" unicode="b" horiz-adv-x="454" 
d="M100 0h-51v653h51v-347q22 39 54 60.5t75 21.5q3 0 6.5 -0.5t7.5 -0.5q3 0 6.5 -0.5t6.5 -0.5q74 -7 112 -66t40 -129v-4.5v-4.5v-3q-1 -79 -47 -135.5t-129 -56.5q-48 0 -80 20.5t-52 61.5v-69v0zM97 176q4 -55 37.5 -100.5t93.5 -45.5h3.5t4.5 1h4h3q55 5 81 49.5
t26 96.5v8t-1 8q-4 55 -36 101.5t-90 46.5h-5q-59 -2 -89.5 -46.5t-32.5 -96.5v-3.5v-2.5v-4t1 -4v-4v-4v0z" />
    <glyph glyph-name="glyph70" unicode="c" horiz-adv-x="414" 
d="M359 306q-15 10 -31 17t-33 11q-14 3 -28 5t-27 2q-60 0 -104.5 -39.5t-44.5 -119.5q0 -54 32 -97.5t84 -53.5q3 0 6.5 -0.5t7.5 -1.5h2h1q5 -1 9.5 -1.5t8.5 -0.5q33 0 65 12.5t59 29.5v-55q-18 -8 -39 -14.5t-42 -9.5q-11 -3 -23 -4t-23 -1q-7 0 -15 0.5t-16 1.5
q-11 2 -22.5 4.5t-22.5 6.5q-60 18 -92.5 71t-32.5 113v3t1 4v3v3q4 93 67 143t142 50q11 0 23 -1t24 -3q16 -3 32.5 -8.5t31.5 -12.5v-57v0z" />
    <glyph glyph-name="glyph71" unicode="d" horiz-adv-x="455" 
d="M352 0v69q-20 -41 -52 -61.5t-80 -20.5q-73 0 -119.5 46t-54.5 116q0 4 -0.5 8t-1.5 9q-1 4 -1.5 8t-0.5 8q0 78 44.5 142t130.5 64q47 0 80 -21.5t55 -60.5v347h51v-653h-51v0zM352 187v9q0 56 -28 100t-90 45h-8q-58 -1 -91 -46.5t-37 -99.5q-1 -4 -1 -8v-8
q0 -56 30.5 -102.5t90.5 -46.5h1.5h0.5h1v1h2h1q68 3 98 48.5t30 107.5v0z" />
    <glyph glyph-name="glyph72" unicode="e" horiz-adv-x="455" 
d="M400 187h-296q3 -60 31 -108t96 -48q44 0 75 25.5t50 64.5l47 -27q-29 -52 -67.5 -79.5t-103.5 -27.5q-87 0 -136 57.5t-49 137.5q0 4 0.5 8t1.5 8q0 4 0.5 8t0.5 8q5 74 60 124t122 50q10 0 21 -1.5t22 -4.5q15 -4 30 -11t29 -18q34 -26 48.5 -62.5t16.5 -74.5
q1 -5 1 -10.5v-10.5v-8v0zM107 229h232q-4 50 -32.5 79.5t-80.5 29.5h-3q-49 -1 -79.5 -30.5t-36.5 -78.5v0z" />
    <glyph glyph-name="glyph73" unicode="f" horiz-adv-x="232" 
d="M82 0v330h-69v44h69v108q0 5 -0.5 11t-0.5 12t-0.5 12.5t-0.5 13.5t0.5 14.5t0.5 15.5q3 27 13.5 52.5t34.5 37.5q7 4 14.5 6t15.5 3q4 0 7.5 0.5t7.5 0.5q5 0 10 -0.5t10 -0.5q10 -2 19.5 -4t17.5 -5l-10 -43q-2 1 -3.5 1.5t-3.5 1.5q-9 3 -17.5 4.5t-14.5 1.5
q-31 0 -40 -31t-9 -71v-141h84v-44h-84v-330h-51v0z" />
    <glyph glyph-name="glyph74" unicode="g" horiz-adv-x="455" 
d="M352 303v71h51v-324q0 -85 -20 -155.5t-130 -78.5h-5t-5 -1h-3h-2q-4 0 -8 -0.5t-7 -0.5q-58 0 -104.5 28t-60.5 90l66 -4q11 -34 40.5 -50.5t63.5 -16.5q6 0 13.5 0.5t14.5 2.5q6 0 11.5 1.5t10.5 2.5q46 15 59.5 51.5t14.5 77.5v5.5v5.5v61q-17 -37 -49.5 -58
t-67.5 -25q-5 0 -9.5 -0.5t-8.5 -0.5q-5 0 -9.5 0.5t-9.5 0.5q-55 7 -102 51.5t-50 124.5q0 3 -0.5 6t-0.5 5q0 3 -0.5 5.5t-0.5 5.5q0 95 48 145t106 58q5 0 10 0.5t10 0.5q43 0 80.5 -22t53.5 -63v0zM218 341q-58 -1 -88.5 -48t-32.5 -102v-3.5v-2.5v-1.5v-1.5
q1 -57 31.5 -104.5t89.5 -47.5q3 0 7.5 0.5t8.5 1.5q2 0 3.5 0.5t3.5 0.5q2 1 3.5 1.5t3.5 0.5q53 11 78.5 56t25.5 97v15q-4 52 -37 95t-92 43h-5v0z" />
    <glyph glyph-name="glyph75" unicode="h" horiz-adv-x="413" 
d="M53 0v653h49v-337q25 34 58.5 53t71.5 19q4 0 8.5 -0.5t9.5 -0.5q2 0 3.5 -0.5t2.5 -0.5q3 0 6 -0.5t6 -0.5q50 -11 74.5 -46.5t24.5 -84.5v-254h-51v231v5.5v4.5q-1 27 -10 51.5t-36 38.5q-7 3 -15.5 5.5t-16.5 3.5q-5 0 -10 0.5t-10 0.5q-4 0 -8.5 -0.5t-9.5 -0.5
q-5 -1 -9.5 -2t-8.5 -2q-52 -15 -64.5 -54t-12.5 -87v-195h-52v0z" />
    <glyph glyph-name="glyph76" unicode="i" horiz-adv-x="173" 
d="M57 0v374h53v-374h-53v0zM80 556h1.5h1.5q14 -1 26 -11t12 -29t-12.5 -29t-27.5 -11h-1.5h-1.5h-3.5t-3.5 1q-12 2 -22 12t-10 27q0 19 12 29t26 11h1.5h1.5v0z" />
    <glyph glyph-name="glyph77" unicode="j" horiz-adv-x="163" 
d="M57 -187v561h53v-561h-53v0zM121 516q0 -19 -12.5 -29t-27.5 -11h-1.5h-1.5h-3.5t-3.5 1q-12 2 -22 12t-10 27q0 19 12 29t26 11h1.5h1.5h1.5h1.5q14 -1 26 -11t12 -29v0z" />
    <glyph glyph-name="glyph78" unicode="k" horiz-adv-x="413" 
d="M49 0v653h51v-446l186 167h72l-201 -167l215 -207h-71l-201 193v-193h-51v0z" />
    <glyph glyph-name="glyph79" unicode="l" horiz-adv-x="162" 
d="M110 0h-53v653h53v-653v0z" />
    <glyph glyph-name="glyph80" unicode="m" horiz-adv-x="645" 
d="M100 0h-51v374h51v-58q19 32 49 49.5t62 19.5h3.5h3.5h7.5t7.5 -1q30 -3 57 -20t43 -50q23 33 54.5 53t72.5 21h3q60 0 93.5 -38t33.5 -97v-253h-52v232q0 44 -18.5 76.5t-64.5 32.5h-15q-63 -6 -79 -49.5t-16 -95.5v-196h-51v232q0 5 -0.5 9.5t-0.5 8.5
q-4 35 -24.5 63.5t-56.5 28.5h-4h-4q-2 -1 -4.5 -1h-4.5q-61 -5 -78 -49t-17 -96v-196v0z" />
    <glyph glyph-name="glyph81" unicode="n" horiz-adv-x="413" 
d="M53 0v374h49v-58q25 34 58.5 53t71.5 19q4 0 8.5 -0.5t9.5 -0.5q2 0 3.5 -0.5t2.5 -0.5q3 0 6 -0.5t6 -0.5q50 -11 74.5 -46.5t24.5 -84.5v-254h-51v231v5.5v4.5q-1 27 -10 51.5t-36 38.5q-7 3 -15.5 5.5t-16.5 3.5q-5 0 -10 0.5t-10 0.5q-4 0 -8.5 -0.5t-9.5 -0.5
q-5 -1 -9.5 -2t-8.5 -2q-52 -15 -64.5 -54t-12.5 -87v-195h-52v0z" />
    <glyph glyph-name="glyph82" unicode="o" horiz-adv-x="493" 
d="M243 -14q-83 1 -142.5 58.5t-59.5 137.5q0 3 0.5 7t1.5 8v0.5v0.5q0 4 0.5 7.5t0.5 6.5q11 77 68.5 125.5t130.5 48.5q14 0 27.5 -2t26.5 -4q68 -16 108.5 -72.5t40.5 -122.5q0 -9 -1 -19t-3 -19q-1 -10 -4 -20t-6 -19q-22 -55 -75.5 -88t-113.5 -33v-1zM104 144
q11 -46 50.5 -79.5t90.5 -33.5q62 2 104.5 48t42.5 108q0 61 -42.5 106.5t-104.5 45.5l-3 -1q-62 0 -103.5 -47t-41.5 -106q0 -5 0.5 -11t2.5 -12q0 -5 1.5 -9.5t2.5 -8.5v0z" />
    <glyph glyph-name="glyph83" unicode="p" horiz-adv-x="454" 
d="M49 -187v561h48v-71q22 42 58.5 63.5t76.5 21.5h6.5t6.5 -1q61 -5 111.5 -57t50.5 -146v-2q0 -78 -42.5 -136t-125.5 -59l-7 -1q-46 1 -79 22t-56 61v-256h-48v0zM229 31q61 0 91.5 46.5t31.5 101.5v1.5v1.5v6v6q-3 53 -33.5 98t-86.5 49h-6q-64 0 -96 -47t-33 -103v-1.5
v-1.5v-1.5v-1.5q1 -58 34.5 -106t97.5 -48v0z" />
    <glyph glyph-name="glyph84" unicode="q" horiz-adv-x="455" 
d="M403 -187h-50v256q-22 -40 -55.5 -61t-79.5 -21l-4 -1q-77 2 -121.5 53t-46.5 123q0 2 -0.5 4.5t-0.5 5.5t-0.5 5.5t-0.5 4.5q0 95 49 147.5t109 57.5q3 1 6.5 1h6.5h6h6q37 -3 71 -24.5t55 -60.5v71h50v-561v0zM248 35q56 13 80 57t24 98q0 59 -31.5 105t-97.5 46h-5
q-58 -1 -88.5 -48t-32.5 -102v-3.5v-2.5v-1.5v-1.5q1 -57 31.5 -104.5t89.5 -47.5q3 0 7.5 0.5t8.5 1.5q2 0 3.5 0.5t3.5 0.5q2 1 3.5 1.5t3.5 0.5v0z" />
    <glyph glyph-name="glyph85" unicode="r" horiz-adv-x="292" 
d="M102 298q23 38 51 64t67 26q6 0 13.5 -1t15.5 -3l8 -2l8 -2l-15 -49q-3 1 -7 1.5t-7 1.5q-6 1 -11.5 1.5t-9.5 0.5q-53 0 -82 -45.5t-31 -100.5v-3.5v-2.5v-184h-52v374h52v-76v0z" />
    <glyph glyph-name="glyph86" unicode="s" horiz-adv-x="363" 
d="M52 66l50 30q14 -29 34 -45.5t54 -19.5h2.5h2.5q19 1 36.5 8.5t27.5 24.5q3 5 4 10.5t2 10.5v4v4q0 3 -0.5 6.5t-0.5 6.5q-3 11 -9 21t-15 16q-15 10 -30.5 17t-31.5 13q-2 0 -3.5 0.5t-3.5 1.5q-14 5 -28 10.5t-27 13.5q-20 14 -31.5 33t-13.5 38v4.5v4.5v4v4
q3 30 23 57t54 37q5 2 11 3.5t12 1.5q5 1 11 1.5t11 0.5h2.5h2.5q36 -1 69 -20t49 -56l-48 -26q-9 23 -25 36t-39 17h-9q-4 0 -7.5 -0.5t-7.5 -1.5q-22 -4 -40 -19.5t-18 -34.5q0 -2 0.5 -5t1.5 -5q2 -5 5.5 -10t7.5 -10q10 -13 26.5 -21t34.5 -14q5 -2 9.5 -3.5t9.5 -2.5
q6 -2 11.5 -4t10.5 -4q32 -10 53 -32t25 -57v-21q0 -52 -40 -79.5t-90 -27.5h-9.5t-8.5 1q-37 4 -70.5 23.5t-46.5 54.5v0z" />
    <glyph glyph-name="glyph87" unicode="t" horiz-adv-x="232" 
d="M91 330h-69v44h69v153h50v-153h76v-44h-76v-330h-50v330v0z" />
    <glyph glyph-name="glyph88" unicode="u" horiz-adv-x="414" 
d="M96 374v-187q0 -59 16 -107.5t89 -48.5q72 0 89.5 48.5t17.5 107.5v187h51v-214q0 -40 -9 -77t-41 -64q-18 -14 -43.5 -21.5t-51.5 -8.5q-4 -1 -7.5 -1h-7.5q-6 0 -11.5 0.5t-11.5 0.5q-26 4 -51 14t-42 27q-25 27 -32 61t-7 69v214h52v0z" />
    <glyph glyph-name="glyph89" unicode="v" horiz-adv-x="413" 
d="M31 374h57l115 -283l113 283h59l-172 -396l-172 396v0z" />
    <glyph glyph-name="glyph90" unicode="w" horiz-adv-x="595" 
d="M174 -22l-150 396h54l98 -270l118 288l117 -288l98 270h53l-149 -396l-119 295l-120 -295v0z" />
    <glyph glyph-name="glyph91" unicode="x" horiz-adv-x="414" 
d="M52 374h64l91 -137l91 137h65l-126 -179l138 -195h-64l-104 152l-103 -152h-65l138 195l-125 179v0z" />
    <glyph glyph-name="glyph92" unicode="y" horiz-adv-x="374" 
d="M36 374h57l106 -292l98 292h55l-193 -561h-54l66 190l-135 371v0z" />
    <glyph glyph-name="glyph93" unicode="z" horiz-adv-x="403" 
d="M46 0l210 328h-195v46h284l-207 -328h214v-46h-306v0z" />
    <glyph glyph-name="glyph94" unicode="{" horiz-adv-x="463" 
d="M400 622v-38h-11q-60 0 -80 -22t-20 -88v-102q0 -55 -12.5 -91.5t-69.5 -56.5q56 -19 69 -56.5t13 -92.5v-100q0 -71 21.5 -91t89.5 -20v-37q-95 1 -125 31t-30 129v98q0 71 -28 95t-91 24h-8v38q69 0 98 23.5t29 97.5v100q0 101 30 129.5t125 29.5v0z" />
    <glyph glyph-name="glyph95" unicode="|" horiz-adv-x="303" 
d="M143 659h38v-862h-38v862v0z" />
    <glyph glyph-name="glyph96" unicode="}" horiz-adv-x="474" 
d="M58 622q97 -1 126.5 -29.5t29.5 -129.5v-100q0 -74 28.5 -97.5t98.5 -23.5v-38h-10q-64 0 -90.5 -24t-26.5 -95v-99q0 -98 -29.5 -128t-126.5 -30v37h11q62 1 81.5 22t19.5 89v99q1 57 12.5 92.5t70.5 56.5q-59 20 -70.5 56.5t-12.5 91.5v102q0 70 -22 91t-90 21v36v0z
" />
    <glyph glyph-name="glyph97" unicode="~" horiz-adv-x="405" 
d="M322 545q-12 -39 -30 -55.5t-36 -20.5q-4 0 -7 -0.5t-6 -0.5q-8 0 -17 1.5t-17 3.5l-6 2l-6 2q-12 3 -23 5.5t-20 2.5q-12 0 -23 -4.5t-18 -18.5h-36q12 44 31.5 58t40.5 14q7 0 14 -1t14 -3q5 -1 10.5 -2.5t10.5 -2.5q12 -3 23.5 -6t21.5 -3h3.5h2.5q11 2 20.5 8.5
t16.5 20.5h36v0z" />
    <glyph glyph-name="uni007F" 
 />
    <glyph glyph-name="F" 
 />
    <glyph glyph-name="F" unicode="&#x402;" 
 />
    <glyph glyph-name="uni0081" 
 />
    <glyph glyph-name="uni0081" unicode="&#x403;" 
 />
    <glyph glyph-name="D" 
 />
    <glyph glyph-name="D" unicode="&#x40c;" 
 />
    <glyph glyph-name="N" 
 />
    <glyph glyph-name="N" unicode="&#x40b;" 
 />
    <glyph glyph-name="bullet" 
 />
    <glyph glyph-name="bullet" unicode="&#x40f;" 
 />
    <glyph glyph-name="guilsinglleft" 
 />
    <glyph glyph-name="guilsinglleft" unicode="&#x452;" 
 />
    <glyph glyph-name="Ydieresis" 
 />
    <glyph glyph-name="Ydieresis" unicode="&#x45c;" 
 />
    <glyph glyph-name="tilde" 
 />
    <glyph glyph-name="tilde" unicode="&#x45b;" 
 />
    <glyph glyph-name="uni00A0" unicode="&#xa0;" 
 />
    <glyph glyph-name="Z" unicode="&#xa1;" 
 />
    <glyph glyph-name="Z" unicode="&#x40e;" 
 />
    <glyph glyph-name="cent" unicode="&#xa2;" 
 />
    <glyph glyph-name="cent" unicode="&#x45e;" 
 />
    <glyph glyph-name="endash" unicode="&#xa3;" 
 />
    <glyph glyph-name="endash" unicode="&#x408;" 
 />
    <glyph glyph-name="currency" unicode="&#xa4;" 
 />
    <glyph glyph-name="emdash" unicode="&#xa5;" 
 />
    <glyph glyph-name="emdash" unicode="&#x490;" 
 />
    <glyph glyph-name="circumflex" unicode="&#xa6;" 
 />
    <glyph glyph-name="scaron" unicode="&#xa7;" horiz-adv-x="465" 
d="M108 60q29 -16 55.5 -21.5t45.5 -5.5q39 0 64 17.5t35 38.5q3 6 4.5 12t1.5 12q0 28 -24.5 42.5t-57.5 27.5l-12 4l-12 4q-39 15 -71.5 37t-34.5 67q0 8 2 17t5 18q9 22 28.5 43t46.5 35q-5 4 -10.5 7.5t-11.5 7.5q-20 15 -37 36.5t-17 55.5q0 41 24.5 69t57.5 38
q12 3 28 4.5t32 1.5h10.5t11.5 -1q21 -1 40 -4.5t27 -7.5v-53q-10 3 -19.5 6t-18.5 5q-10 3 -19.5 4t-19.5 1h-14.5t-15.5 -2q-30 -4 -47.5 -21t-19.5 -36v-2v-2q2 -28 26 -44t56 -30q4 -1 8.5 -3t8.5 -4q38 -17 69 -40t31 -67q0 -28 -14.5 -46t-31.5 -30q-10 -7 -19 -12.5
t-16 -10.5q7 -5 16 -10.5t17 -12.5q21 -15 37.5 -38t16.5 -60q0 -46 -28.5 -73.5t-62.5 -38.5q-15 -5 -29.5 -7.5t-26.5 -2.5q-34 0 -62.5 4.5t-52.5 10.5v60v0zM159 314q0 -23 19 -38.5t51 -29.5q3 -1 5.5 -2t4.5 -2q5 7 11.5 12t14.5 10q1 1 2.5 1.5t2.5 1.5q15 9 26.5 21
t11.5 32q0 14 -9.5 23t-24.5 17l-21 10.5t-22 12.5q-2 1 -4 2.5t-4 2.5q-34 -16 -49 -35t-15 -39v0z" />
    <glyph glyph-name="H" unicode="&#xa8;" 
 />
    <glyph glyph-name="H" unicode="&#x401;" 
 />
    <glyph glyph-name="I" unicode="&#xa9;" horiz-adv-x="786" 
d="M684 309q-4 -141 -82 -227t-216 -90l-12 -1q-131 1 -212.5 94.5t-81.5 234.5q5 142 96.5 225t203.5 83h8.5t8.5 -1q107 -6 197 -92.5t90 -215.5v-10v0zM380 39q114 0 183.5 71.5t69.5 198.5q0 125 -74 196t-179 71q-103 0 -176.5 -76.5t-73.5 -179.5q0 -121 69 -201
t181 -80v0zM488 367q-4 41 -31.5 61.5t-70.5 20.5q-45 0 -69.5 -32.5t-30.5 -71.5q-2 -8 -2.5 -15.5t-0.5 -15.5q0 -60 33.5 -104t82.5 -44q38 0 61.5 26t27.5 62h50q-4 -60 -38.5 -91t-75.5 -39l-16 -2t-16 -1q-12 0 -25 2.5t-26 7.5q-41 15 -75.5 59t-34.5 124
q0 75 29 114t64 54q17 7 33 10t29 3q62 0 105 -30t47 -98h-50v0z" />
    <glyph glyph-name="J" unicode="&#xaa;" 
 />
    <glyph glyph-name="J" unicode="&#x404;" 
 />
    <glyph glyph-name="ampersand" unicode="&#xab;" horiz-adv-x="374" 
d="M55 228l88 166h45l-77 -166l71 -168h-39l-88 168v0zM286 60l-88 168l88 166h44l-76 -166l69 -168h-37v0z" />
    <glyph glyph-name="quotesingle" unicode="&#xac;" 
 />
    <glyph glyph-name="daggerdbl" unicode="&#xad;" 
 />
    <glyph glyph-name="dagger" unicode="&#xae;" horiz-adv-x="766" 
d="M69 320q5 142 96.5 225t203.5 83h8.5t8.5 -1q107 -6 197 -92.5t90 -215.5v-10q-4 -141 -82 -227t-216 -90l-12 -1q-131 1 -212.5 94.5t-81.5 234.5v0zM119 320q0 -121 69 -201t181 -80q114 0 183.5 71.5t69.5 198.5q0 125 -74 196t-179 71q-103 0 -176.5 -76.5
t-73.5 -179.5v0zM388 495q62 0 104 -17.5t42 -83.5q0 -51 -30 -76t-66 -28q-4 -1 -7 -1h-6l102 -162h-56l-96 162h-66v-162h-50v368h129v0zM407 449h-98v-115h98q44 0 60.5 14.5t16.5 45.5q0 37 -21.5 46t-55.5 9v0z" />
    <glyph glyph-name="macron" unicode="&#xaf;" 
 />
    <glyph glyph-name="macron" unicode="&#x407;" 
 />
    <glyph glyph-name="degree" unicode="&#xb0;" horiz-adv-x="323" 
d="M82 556q0 31 17.5 51.5t48.5 20.5q33 0 54 -18.5t21 -53.5q0 -40 -21 -60t-54 -20q-31 0 -48.5 22.5t-17.5 57.5v0zM148 509q23 0 33.5 13.5t10.5 33.5t-12.5 30.5t-31.5 10.5q-16 0 -25 -12t-10 -26v-1.5v-1.5v-5.5t1 -4.5q1 -14 8.5 -25.5t25.5 -11.5v0z" />
    <glyph glyph-name="at" unicode="&#xb1;" 
 />
    <glyph glyph-name="P" unicode="&#xb2;" 
 />
    <glyph glyph-name="P" unicode="&#x406;" 
 />
    <glyph glyph-name="S" unicode="&#xb3;" 
 />
    <glyph glyph-name="S" unicode="&#x456;" 
 />
    <glyph glyph-name="T" unicode="&#xb4;" 
 />
    <glyph glyph-name="T" unicode="&#x491;" 
 />
    <glyph glyph-name="U" unicode="&#xb5;" 
 />
    <glyph glyph-name="V" unicode="&#xb6;" horiz-adv-x="554" 
d="M392 570h-94v-694h-53v413q-67 0 -113 51t-46 123q0 8 1 16l2 16q10 48 48.5 87.5t107.5 39.5h206v-746h-59v694v0z" />
    <glyph glyph-name="quoteleft" unicode="&#xb8;" 
 />
    <glyph glyph-name="quoteleft" unicode="&#x451;" 
 />
    <glyph glyph-name="one" unicode="&#xb9;" 
 />
    <glyph glyph-name="one" unicode="&#x2116;" 
 />
    <glyph glyph-name="G" unicode="&#xba;" 
 />
    <glyph glyph-name="G" unicode="&#x454;" 
 />
    <glyph glyph-name="bracketleft" unicode="&#xbb;" 
 />
    <glyph glyph-name="w" unicode="&#xbc;" 
 />
    <glyph glyph-name="w" unicode="&#x458;" 
 />
    <glyph glyph-name="bracketright" unicode="&#xbd;" 
 />
    <glyph glyph-name="bracketright" unicode="&#x405;" 
 />
    <glyph glyph-name="R" unicode="&#xbe;" 
 />
    <glyph glyph-name="R" unicode="&#x455;" 
 />
    <glyph glyph-name="underscore" unicode="&#xbf;" 
 />
    <glyph glyph-name="underscore" unicode="&#x457;" 
 />
    <glyph glyph-name="grave" unicode="&#xc0;" horiz-adv-x="565" 
d="M17 0l269 642l259 -642h-60l-80 209h-251l-82 -209h-55v0zM173 257h215l-105 269l-110 -269v0z" />
    <glyph glyph-name="grave" unicode="&#x410;" horiz-adv-x="565" 
d="M17 0l269 642l259 -642h-60l-80 209h-251l-82 -209h-55v0zM173 257h215l-105 269l-110 -269v0z" />
    <glyph glyph-name="a" unicode="&#xc1;" horiz-adv-x="474" 
d="M132 562v-217h107q8 0 16.5 -0.5t17.5 -1.5q59 -8 108 -48.5t49 -128.5v-1q-2 -41 -20.5 -77.5t-53.5 -59.5q-27 -16 -57 -21t-62 -7h-160v617h295v-55h-240v0zM370 171q0 52 -30.5 87.5t-96.5 35.5h-111v-245l105 -2q53 4 93 27t40 97v0z" />
    <glyph glyph-name="a" unicode="&#x411;" horiz-adv-x="474" 
d="M132 562v-217h107q8 0 16.5 -0.5t17.5 -1.5q59 -8 108 -48.5t49 -128.5v-1q-2 -41 -20.5 -77.5t-53.5 -59.5q-27 -16 -57 -21t-62 -7h-160v617h295v-55h-240v0zM370 171q0 52 -30.5 87.5t-96.5 35.5h-111v-245l105 -2q53 4 93 27t40 97v0z" />
    <glyph glyph-name="b" unicode="&#xc2;" horiz-adv-x="474" 
d="M77 0v617h121h22.5t23.5 -1q25 -2 49 -8.5t45 -20.5q27 -19 42.5 -49t18.5 -63v-6v-6q0 -43 -23.5 -82t-70.5 -53q60 -12 92 -59t32 -101q0 -6 -0.5 -11.5t-0.5 -10.5q-5 -34 -22.5 -65.5t-49.5 -52.5q-22 -13 -48 -18.5t-53 -7.5q-14 -1 -28 -1.5t-28 -0.5h-122v0z
M132 294v-245q9 0 18 -0.5t18 -0.5q5 -1 9.5 -1t9.5 -1h9.5h9.5h6.5t6.5 1h6.5h6.5q55 2 96.5 25.5t41.5 98.5q0 78 -42 100.5t-99 23.5h-20h-19h-19q-10 -1 -20 -1h-19v0zM132 342h15h16q2 -1 5 -1h6h10.5h10.5h7.5t8.5 1h1.5h0.5h8h7q44 2 78 23t36 79v10q0 77 -44.5 95.5
t-102.5 18.5h-63v-226v0z" />
    <glyph glyph-name="b" unicode="&#x412;" horiz-adv-x="474" 
d="M77 0v617h121h22.5t23.5 -1q25 -2 49 -8.5t45 -20.5q27 -19 42.5 -49t18.5 -63v-6v-6q0 -43 -23.5 -82t-70.5 -53q60 -12 92 -59t32 -101q0 -6 -0.5 -11.5t-0.5 -10.5q-5 -34 -22.5 -65.5t-49.5 -52.5q-22 -13 -48 -18.5t-53 -7.5q-14 -1 -28 -1.5t-28 -0.5h-122v0z
M132 294v-245q9 0 18 -0.5t18 -0.5q5 -1 9.5 -1t9.5 -1h9.5h9.5h6.5t6.5 1h6.5h6.5q55 2 96.5 25.5t41.5 98.5q0 78 -42 100.5t-99 23.5h-20h-19h-19q-10 -1 -20 -1h-19v0zM132 342h15h16q2 -1 5 -1h6h10.5h10.5h7.5t8.5 1h1.5h0.5h8h7q44 2 78 23t36 79v10q0 77 -44.5 95.5
t-102.5 18.5h-63v-226v0z" />
    <glyph glyph-name="c" unicode="&#xc3;" horiz-adv-x="294" 
d="M80 0v617h248v-53h-193v-564h-55v0z" />
    <glyph glyph-name="c" unicode="&#x413;" horiz-adv-x="294" 
d="M80 0v617h248v-53h-193v-564h-55v0z" />
    <glyph glyph-name="d" unicode="&#xc4;" horiz-adv-x="695" 
d="M173 617h389v-562h75v-177h-55v122h-478v-122h-57v174h25q8 0 21.5 11t33.5 48l4.5 9t4.5 11q14 38 25.5 131.5t11.5 277.5v77v0zM226 565q-4 -236 -16.5 -333t-30.5 -136q-4 -7 -7 -12t-5 -9q-2 -2 -3.5 -4.5t-3.5 -4.5q-2 -3 -5 -5.5t-7 -5.5h357v510h-279v0z" />
    <glyph glyph-name="d" unicode="&#x414;" horiz-adv-x="695" 
d="M173 617h389v-562h75v-177h-55v122h-478v-122h-57v174h25q8 0 21.5 11t33.5 48l4.5 9t4.5 11q14 38 25.5 131.5t11.5 277.5v77v0zM226 565q-4 -236 -16.5 -333t-30.5 -136q-4 -7 -7 -12t-5 -9q-2 -2 -3.5 -4.5t-3.5 -4.5q-2 -3 -5 -5.5t-7 -5.5h357v510h-279v0z" />
    <glyph glyph-name="e" unicode="&#xc5;" horiz-adv-x="424" 
d="M72 0v617h305v-52h-250v-193h250v-53h-250v-267h250v-52h-305v0z" />
    <glyph glyph-name="e" unicode="&#x415;" horiz-adv-x="424" 
d="M72 0v617h305v-52h-250v-193h250v-53h-250v-267h250v-52h-305v0z" />
    <glyph glyph-name="f" unicode="&#xc6;" horiz-adv-x="885" 
d="M414 617h57v-289l278 289h74l-292 -295l306 -322h-82l-284 314v-314h-57v314l-284 -314h-81l306 322l-292 295h74l277 -289v289v0z" />
    <glyph glyph-name="f" unicode="&#x416;" horiz-adv-x="885" 
d="M414 617h57v-289l278 289h74l-292 -295l306 -322h-82l-284 314v-314h-57v314l-284 -314h-81l306 322l-292 295h74l277 -289v289v0z" />
    <glyph glyph-name="g" unicode="&#xc7;" horiz-adv-x="524" 
d="M121 130q20 -37 56.5 -58t76.5 -25q5 0 9.5 -0.5t9.5 -0.5h1.5h1.5q53 1 97 32.5t46 94.5v8q0 60 -45 83t-99 28q-16 1 -32 1.5t-31 0.5h-30v48h10.5h11.5q3 -1 7 -1h7h5.5h4.5h18t18 1q48 3 87.5 23.5t40.5 78.5v5q0 56 -31.5 82t-71.5 26q-8 0 -16.5 -1t-17.5 -3
q-30 -7 -58 -25.5t-46 -45.5l-38 30q21 39 56.5 60.5t72.5 28.5q13 3 25.5 4t24.5 1q29 0 55.5 -5.5t40.5 -13.5q27 -16 46.5 -44t20.5 -63q0 -48 -13 -80.5t-56 -62.5q-4 -3 -9 -6l-10 -6q52 -14 81 -56t32 -90v-5v-6v-9.5t-1 -9.5q-4 -34 -21.5 -66.5t-50.5 -54.5
q-21 -13 -46 -20.5t-51 -10.5q-8 -1 -15.5 -1.5t-15.5 -0.5t-16.5 0.5t-17.5 1.5q-46 6 -89.5 30.5t-75.5 68.5l41 34v0z" />
    <glyph glyph-name="g" unicode="&#x417;" horiz-adv-x="524" 
d="M121 130q20 -37 56.5 -58t76.5 -25q5 0 9.5 -0.5t9.5 -0.5h1.5h1.5q53 1 97 32.5t46 94.5v8q0 60 -45 83t-99 28q-16 1 -32 1.5t-31 0.5h-30v48h10.5h11.5q3 -1 7 -1h7h5.5h4.5h18t18 1q48 3 87.5 23.5t40.5 78.5v5q0 56 -31.5 82t-71.5 26q-8 0 -16.5 -1t-17.5 -3
q-30 -7 -58 -25.5t-46 -45.5l-38 30q21 39 56.5 60.5t72.5 28.5q13 3 25.5 4t24.5 1q29 0 55.5 -5.5t40.5 -13.5q27 -16 46.5 -44t20.5 -63q0 -48 -13 -80.5t-56 -62.5q-4 -3 -9 -6l-10 -6q52 -14 81 -56t32 -90v-5v-6v-9.5t-1 -9.5q-4 -34 -21.5 -66.5t-50.5 -54.5
q-21 -13 -46 -20.5t-51 -10.5q-8 -1 -15.5 -1.5t-15.5 -0.5t-16.5 0.5t-17.5 1.5q-46 6 -89.5 30.5t-75.5 68.5l41 34v0z" />
    <glyph glyph-name="h" unicode="&#xc8;" horiz-adv-x="584" 
d="M473 0v498l-393 -514v635h52v-492l394 518v-645h-53v0z" />
    <glyph glyph-name="h" unicode="&#x418;" horiz-adv-x="584" 
d="M473 0v498l-393 -514v635h52v-492l394 518v-645h-53v0z" />
    <glyph glyph-name="i" unicode="&#xc9;" horiz-adv-x="575" 
d="M474 0v501l-394 -517v635h52v-492l394 518v-645h-52v0zM179 747h58l-2 -1q0 -1 1.5 -7.5t8.5 -14.5t21.5 -15t41.5 -7q29 0 42.5 7t19.5 16q4 6 4.5 11.5t0.5 8.5v1.5v0.5h57v-1q0 -1 -2 -14t-13 -28q-12 -16 -37 -29t-72 -13q-49 0 -75.5 13t-38.5 29q-12 15 -14.5 28
t-2.5 14l2 1v0z" />
    <glyph glyph-name="i" unicode="&#x419;" horiz-adv-x="575" 
d="M474 0v501l-394 -517v635h52v-492l394 518v-645h-52v0zM179 747h58l-2 -1q0 -1 1.5 -7.5t8.5 -14.5t21.5 -15t41.5 -7q29 0 42.5 7t19.5 16q4 6 4.5 11.5t0.5 8.5v1.5v0.5h57v-1q0 -1 -2 -14t-13 -28q-12 -16 -37 -29t-72 -13q-49 0 -75.5 13t-38.5 29q-12 15 -14.5 28
t-2.5 14l2 1v0z" />
    <glyph glyph-name="j" unicode="&#xca;" horiz-adv-x="545" 
d="M74 0v617h55v-289l279 289h72l-292 -295l307 -322h-81l-285 314v-314h-55v0z" />
    <glyph glyph-name="j" unicode="&#x41a;" horiz-adv-x="545" 
d="M74 0v617h55v-289l279 289h72l-292 -295l307 -322h-81l-285 314v-314h-55v0z" />
    <glyph glyph-name="k" unicode="&#xcb;" horiz-adv-x="614" 
d="M163 50q-12 -19 -37.5 -33t-53.5 -19q-6 -1 -11.5 -2t-10.5 -1v57q3 0 13.5 2.5t21.5 7.5q9 4 17 10t13 14q22 29 38.5 111.5t16.5 419.5h389v-617h-57v565h-274q-1 -225 -11.5 -336t-53.5 -179v0z" />
    <glyph glyph-name="k" unicode="&#x41b;" horiz-adv-x="614" 
d="M163 50q-12 -19 -37.5 -33t-53.5 -19q-6 -1 -11.5 -2t-10.5 -1v57q3 0 13.5 2.5t21.5 7.5q9 4 17 10t13 14q22 29 38.5 111.5t16.5 419.5h389v-617h-57v565h-274q-1 -225 -11.5 -336t-53.5 -179v0z" />
    <glyph glyph-name="l" unicode="&#xcc;" horiz-adv-x="746" 
d="M375 -22l-216 493l-48 -471h-58l85 644l236 -550l245 550l80 -644h-58l-46 471l-220 -493v0z" />
    <glyph glyph-name="l" unicode="&#x41c;" horiz-adv-x="746" 
d="M375 -22l-216 493l-48 -471h-58l85 644l236 -550l245 550l80 -644h-58l-46 471l-220 -493v0z" />
    <glyph glyph-name="m" unicode="&#xcd;" horiz-adv-x="584" 
d="M80 0v617h55v-250h336v250h56v-617h-56v319h-336v-319h-55v0z" />
    <glyph glyph-name="m" unicode="&#x41d;" horiz-adv-x="584" 
d="M80 0v617h55v-250h336v250h56v-617h-56v319h-336v-319h-55v0z" />
    <glyph glyph-name="n" unicode="&#xce;" horiz-adv-x="746" 
d="M683 184q-39 -94 -125 -145.5t-181 -51.5q-8 0 -15.5 0.5t-15.5 0.5q-32 3 -63 11.5t-60 22.5q-81 42 -127.5 121t-46.5 166q0 16 2 32t5 32q5 23 13 45.5t19 43.5q44 81 124 125t168 44q14 0 29 -1t29 -4q32 -6 64 -17.5t60 -29.5q64 -43 101.5 -112t41.5 -143
q1 -5 1 -9.5v-9.5q0 -31 -5.5 -61.5t-17.5 -59.5v0zM325 39q5 -1 10.5 -2t10.5 -1q8 -2 16 -2.5t15 -0.5q80 0 150 46.5t101 123.5q10 24 14.5 50t4.5 52v5.5v5.5q-3 70 -40 134t-102 99q-22 12 -46 19.5t-48 10.5q-9 1 -17 1.5t-16 0.5q-85 0 -159 -53t-100 -142
q-3 -10 -5 -22l-4 -24q-1 -8 -1.5 -15.5t-0.5 -15.5q0 -94 60 -173t157 -97v0z" />
    <glyph glyph-name="n" unicode="&#x41e;" horiz-adv-x="746" 
d="M683 184q-39 -94 -125 -145.5t-181 -51.5q-8 0 -15.5 0.5t-15.5 0.5q-32 3 -63 11.5t-60 22.5q-81 42 -127.5 121t-46.5 166q0 16 2 32t5 32q5 23 13 45.5t19 43.5q44 81 124 125t168 44q14 0 29 -1t29 -4q32 -6 64 -17.5t60 -29.5q64 -43 101.5 -112t41.5 -143
q1 -5 1 -9.5v-9.5q0 -31 -5.5 -61.5t-17.5 -59.5v0zM325 39q5 -1 10.5 -2t10.5 -1q8 -2 16 -2.5t15 -0.5q80 0 150 46.5t101 123.5q10 24 14.5 50t4.5 52v5.5v5.5q-3 70 -40 134t-102 99q-22 12 -46 19.5t-48 10.5q-9 1 -17 1.5t-16 0.5q-85 0 -159 -53t-100 -142
q-3 -10 -5 -22l-4 -24q-1 -8 -1.5 -15.5t-0.5 -15.5q0 -94 60 -173t157 -97v0z" />
    <glyph glyph-name="o" unicode="&#xcf;" horiz-adv-x="584" 
d="M80 617h447v-617h-56v564h-336v-564h-55v617v0z" />
    <glyph glyph-name="o" unicode="&#x41f;" horiz-adv-x="584" 
d="M80 617h447v-617h-56v564h-336v-564h-55v617v0z" />
    <glyph glyph-name="p" unicode="&#xd0;" horiz-adv-x="385" 
d="M138 276v-276h-55v617h123h21t21 -1q31 -2 60 -10.5t51 -29.5t34 -52t15 -63v-7.5v-6.5v-16.5t-1 -16.5q-16 -96 -81 -117.5t-142 -21.5h-11t-12 1h-12h-11v0zM138 327q6 0 13 -0.5t15 -0.5h4.5h5.5q4 -1 9 -1h10h4.5h4.5q53 1 97 19.5t48 87.5v12q0 83 -52 103.5
t-114 20.5h-3.5h-2.5h-39v-241v0z" />
    <glyph glyph-name="p" unicode="&#x420;" horiz-adv-x="385" 
d="M138 276v-276h-55v617h123h21t21 -1q31 -2 60 -10.5t51 -29.5t34 -52t15 -63v-7.5v-6.5v-16.5t-1 -16.5q-16 -96 -81 -117.5t-142 -21.5h-11t-12 1h-12h-11v0zM138 327q6 0 13 -0.5t15 -0.5h4.5h5.5q4 -1 9 -1h10h4.5h4.5q53 1 97 19.5t48 87.5v12q0 83 -52 103.5
t-114 20.5h-3.5h-2.5h-39v-241v0z" />
    <glyph glyph-name="q" unicode="&#xd1;" horiz-adv-x="615" 
d="M568 504q-46 37 -94.5 57t-104.5 20q-7 0 -15 -0.5t-16 -1.5h-2h-2q-4 0 -8.5 -0.5t-8.5 -0.5q-99 -18 -154.5 -95.5t-55.5 -176.5q0 -106 64 -183t173 -87h6h7q3 -1 6 -1h6q53 0 104 20t94 52l-2 -66q-30 -17 -62.5 -29t-65.5 -17q-18 -4 -36 -5.5t-35 -1.5
q-118 0 -213 72.5t-106 214.5v7v9q-1 4 -1 8v7q0 119 70.5 208t192.5 111l16 2t17 2q8 1 16 1.5t16 0.5h8h8q48 -3 94.5 -19.5t86.5 -46.5l-3 -61v0z" />
    <glyph glyph-name="q" unicode="&#x421;" horiz-adv-x="615" 
d="M568 504q-46 37 -94.5 57t-104.5 20q-7 0 -15 -0.5t-16 -1.5h-2h-2q-4 0 -8.5 -0.5t-8.5 -0.5q-99 -18 -154.5 -95.5t-55.5 -176.5q0 -106 64 -183t173 -87h6h7q3 -1 6 -1h6q53 0 104 20t94 52l-2 -66q-30 -17 -62.5 -29t-65.5 -17q-18 -4 -36 -5.5t-35 -1.5
q-118 0 -213 72.5t-106 214.5v7v9q-1 4 -1 8v7q0 119 70.5 208t192.5 111l16 2t17 2q8 1 16 1.5t16 0.5h8h8q48 -3 94.5 -19.5t86.5 -46.5l-3 -61v0z" />
    <glyph glyph-name="Scaron" unicode="&#xd2;" horiz-adv-x="424" 
d="M226 0v565h-169v52h395v-52h-169v-565h-57v0z" />
    <glyph glyph-name="Scaron" unicode="&#x422;" horiz-adv-x="424" 
d="M226 0v565h-169v52h395v-52h-169v-565h-57v0z" />
    <glyph glyph-name="r" unicode="&#xd3;" horiz-adv-x="444" 
d="M268 248l153 369h56l-257 -617h-57l76 182l-181 435h60l150 -369v0z" />
    <glyph glyph-name="r" unicode="&#x423;" horiz-adv-x="444" 
d="M268 248l153 369h56l-257 -617h-57l76 182l-181 435h60l150 -369v0z" />
    <glyph glyph-name="t" unicode="&#xd4;" horiz-adv-x="807" 
d="M380 -111v94q-11 2 -22 3t-23 3q-26 5 -51.5 12.5t-49.5 20.5q-81 42 -127.5 121t-46.5 166q0 16 2 32t5 32q5 23 13 45.5t19 43.5q42 77 119 119.5t162 46.5v83h56v-83q85 -4 162.5 -46.5t118.5 -119.5q11 -21 19 -43.5t13 -45.5q3 -16 4.5 -32t1.5 -32
q0 -87 -45.5 -166t-127.5 -121q-23 -12 -48.5 -20t-51.5 -13q-12 -2 -23.5 -3t-22.5 -2v-95h-56v0zM380 35v544q-84 -3 -154.5 -54.5t-95.5 -138.5q-2 -9 -4 -18.5t-4 -18.5q-1 -10 -2 -19.5t-1 -18.5q0 -106 74.5 -191t186.5 -85v0zM686 386q-25 87 -95.5 138.5
t-154.5 54.5v-544q111 0 185 85t74 191q0 9 -0.5 18.5t-1.5 19.5q-1 9 -3 18.5t-4 18.5v0z" />
    <glyph glyph-name="t" unicode="&#x424;" horiz-adv-x="807" 
d="M380 -111v94q-11 2 -22 3t-23 3q-26 5 -51.5 12.5t-49.5 20.5q-81 42 -127.5 121t-46.5 166q0 16 2 32t5 32q5 23 13 45.5t19 43.5q42 77 119 119.5t162 46.5v83h56v-83q85 -4 162.5 -46.5t118.5 -119.5q11 -21 19 -43.5t13 -45.5q3 -16 4.5 -32t1.5 -32
q0 -87 -45.5 -166t-127.5 -121q-23 -12 -48.5 -20t-51.5 -13q-12 -2 -23.5 -3t-22.5 -2v-95h-56v0zM380 35v544q-84 -3 -154.5 -54.5t-95.5 -138.5q-2 -9 -4 -18.5t-4 -18.5q-1 -10 -2 -19.5t-1 -18.5q0 -106 74.5 -191t186.5 -85v0zM686 386q-25 87 -95.5 138.5
t-154.5 54.5v-544q111 0 185 85t74 191q0 9 -0.5 18.5t-1.5 19.5q-1 9 -3 18.5t-4 18.5v0z" />
    <glyph glyph-name="u" unicode="&#xd5;" horiz-adv-x="564" 
d="M130 0h-59l186 323l-169 294h61l140 -245l140 245h61l-170 -290l187 -327h-61l-159 273l-157 -273v0z" />
    <glyph glyph-name="u" unicode="&#x425;" horiz-adv-x="564" 
d="M130 0h-59l186 323l-169 294h61l140 -245l140 245h61l-170 -290l187 -327h-61l-159 273l-157 -273v0z" />
    <glyph glyph-name="zero" unicode="&#xd6;" horiz-adv-x="656" 
d="M551 0h-469v617h55v-564h336v564h56v-562h77v-177h-57l2 122v0z" />
    <glyph glyph-name="zero" unicode="&#x426;" horiz-adv-x="656" 
d="M551 0h-469v617h55v-564h336v564h56v-562h77v-177h-57l2 122v0z" />
    <glyph glyph-name="parenright" unicode="&#xd7;" horiz-adv-x="513" 
d="M68 416v201h54v-207q0 -40 36.5 -71.5t80.5 -35.5h5.5h5.5q52 0 93 19.5t59 44.5v250h55v-617h-55v308q-22 -24 -52.5 -37.5t-62.5 -17.5q-7 -1 -13.5 -1.5t-12.5 -0.5h-1.5h-1.5q-71 1 -130.5 44t-59.5 121v0z" />
    <glyph glyph-name="parenright" unicode="&#x427;" horiz-adv-x="513" 
d="M68 416v201h54v-207q0 -40 36.5 -71.5t80.5 -35.5h5.5h5.5q52 0 93 19.5t59 44.5v250h55v-617h-55v308q-22 -24 -52.5 -37.5t-62.5 -17.5q-7 -1 -13.5 -1.5t-12.5 -0.5h-1.5h-1.5q-71 1 -130.5 44t-59.5 121v0z" />
    <glyph glyph-name="x" unicode="&#xd8;" horiz-adv-x="777" 
d="M367 52v565h55v-565h237v565h57v-617h-642v617h55v-565h238v0z" />
    <glyph glyph-name="x" unicode="&#x428;" horiz-adv-x="777" 
d="M367 52v565h55v-565h237v565h57v-617h-642v617h55v-565h238v0z" />
    <glyph glyph-name="y" unicode="&#xd9;" horiz-adv-x="835" 
d="M733 0h-658v617h55v-565h239v565h55v-565h237v565h56v-565h73v-174h-57v122v0z" />
    <glyph glyph-name="y" unicode="&#x429;" horiz-adv-x="835" 
d="M733 0h-658v617h55v-565h239v565h55v-565h237v565h56v-565h73v-174h-57v122v0z" />
    <glyph glyph-name="z" unicode="&#xda;" horiz-adv-x="614" 
d="M265 617v-275h112q6 0 12 -0.5t12 -1.5q10 -1 20 -2.5t19 -2.5q7 -2 13 -3t10 -2q50 -15 74 -58t25 -92v-2v-2v-6v-6q-3 -40 -21 -77t-51 -59q-22 -13 -48 -18.5t-53 -7.5q-14 -1 -28 -1.5t-28 -0.5h-124v565h-170v52h226v0zM397 49q44 6 75.5 32t31.5 90
q0 73 -37.5 96.5t-89.5 26.5h-112v-245h132v0z" />
    <glyph glyph-name="z" unicode="&#x42a;" horiz-adv-x="614" 
d="M265 617v-275h112q6 0 12 -0.5t12 -1.5q10 -1 20 -2.5t19 -2.5q7 -2 13 -3t10 -2q50 -15 74 -58t25 -92v-2v-2v-6v-6q-3 -40 -21 -77t-51 -59q-22 -13 -48 -18.5t-53 -7.5q-14 -1 -28 -1.5t-28 -0.5h-124v565h-170v52h226v0zM397 49q44 6 75.5 32t31.5 90
q0 73 -37.5 96.5t-89.5 26.5h-112v-245h132v0z" />
    <glyph glyph-name="braceleft" unicode="&#xdb;" horiz-adv-x="595" 
d="M126 345h106q9 0 18 -0.5t18 -1.5q58 -9 107 -49t49 -128v-1q-2 -41 -20.5 -77.5t-53.5 -59.5q-27 -16 -57 -21t-62 -7h-160v617h55v-272v0zM231 47q53 4 93 27t40 97q0 52 -30.5 87.5t-96.5 35.5h-111v-245l105 -2v0zM535 617v-617h-56v617h56v0z" />
    <glyph glyph-name="braceleft" unicode="&#x42b;" horiz-adv-x="595" 
d="M126 345h106q9 0 18 -0.5t18 -1.5q58 -9 107 -49t49 -128v-1q-2 -41 -20.5 -77.5t-53.5 -59.5q-27 -16 -57 -21t-62 -7h-160v617h55v-272v0zM231 47q53 4 93 27t40 97q0 52 -30.5 87.5t-96.5 35.5h-111v-245l105 -2v0zM535 617v-617h-56v617h56v0z" />
    <glyph glyph-name="bar" unicode="&#xdc;" horiz-adv-x="474" 
d="M77 617h55v-272h107q8 0 16.5 -0.5t17.5 -1.5q59 -8 108 -48.5t49 -128.5v-1q-2 -41 -20.5 -77.5t-53.5 -59.5q-27 -16 -57 -21t-62 -7h-160v617v0zM237 47q53 4 93 27t40 97q0 52 -30.5 87.5t-96.5 35.5h-111v-245l105 -2v0z" />
    <glyph glyph-name="bar" unicode="&#x42c;" horiz-adv-x="474" 
d="M77 617h55v-272h107q8 0 16.5 -0.5t17.5 -1.5q59 -8 108 -48.5t49 -128.5v-1q-2 -41 -20.5 -77.5t-53.5 -59.5q-27 -16 -57 -21t-62 -7h-160v617v0zM237 47q53 4 93 27t40 97q0 52 -30.5 87.5t-96.5 35.5h-111v-245l105 -2v0z" />
    <glyph glyph-name="braceright" unicode="&#xdd;" horiz-adv-x="625" 
d="M78 565q36 28 77.5 44.5t85.5 20.5q6 0 12.5 0.5t13.5 0.5q10 0 20.5 -1t21.5 -2q5 -1 10.5 -1.5t10.5 -1.5q116 -22 182.5 -111t66.5 -209v-30q-10 -142 -101.5 -214.5t-204.5 -72.5q-15 0 -29.5 1.5t-29.5 3.5q-33 6 -66 17.5t-63 30.5l-2 66q41 -32 89 -52t98 -20h6
t7 1h6h6q113 11 169.5 96t56.5 188h-287v49h281q-1 2 -2 6t-1 8q-16 72 -65.5 126.5t-126.5 68.5q-4 0 -8 0.5t-8 0.5q-3 0 -6 0.5t-6 0.5q-6 1 -11.5 1h-10.5q-53 0 -98.5 -20t-89.5 -57l-4 61v0z" />
    <glyph glyph-name="braceright" unicode="&#x42d;" horiz-adv-x="625" 
d="M78 565q36 28 77.5 44.5t85.5 20.5q6 0 12.5 0.5t13.5 0.5q10 0 20.5 -1t21.5 -2q5 -1 10.5 -1.5t10.5 -1.5q116 -22 182.5 -111t66.5 -209v-30q-10 -142 -101.5 -214.5t-204.5 -72.5q-15 0 -29.5 1.5t-29.5 3.5q-33 6 -66 17.5t-63 30.5l-2 66q41 -32 89 -52t98 -20h6
t7 1h6h6q113 11 169.5 96t56.5 188h-287v49h281q-1 2 -2 6t-1 8q-16 72 -65.5 126.5t-126.5 68.5q-4 0 -8 0.5t-8 0.5q-3 0 -6 0.5t-6 0.5q-6 1 -11.5 1h-10.5q-53 0 -98.5 -20t-89.5 -57l-4 61v0z" />
    <glyph glyph-name="asciitilde" unicode="&#xde;" horiz-adv-x="867" 
d="M122 367h46q0 2 0.5 4.5t1.5 4.5v1.5v0.5q0 2 0.5 4t0.5 4q29 112 124 178t204 66q13 0 26 -1t26 -3q33 -5 65 -16.5t61 -30.5q67 -45 104.5 -117t39.5 -150v-3.5v-3.5q0 -8 -0.5 -15.5t-0.5 -15.5q-3 -23 -8.5 -46t-14.5 -44q-38 -94 -123.5 -145.5t-182.5 -51.5
q-15 0 -31 1.5t-31 4.5q-24 4 -47.5 11t-45.5 18q-72 37 -124 111t-52 157q0 3 0.5 7t1.5 8q0 3 0.5 7t0.5 7h-41v-319h-54v617h54v-250v0zM234 386q-1 -2 -1.5 -4.5t-0.5 -5.5q-2 -7 -3.5 -14.5t-3.5 -14.5q-2 -10 -3 -20t-1 -19q0 -93 60.5 -172t158.5 -97q6 -1 13.5 -2.5
t14.5 -2.5q6 0 11.5 -0.5t10.5 -0.5q80 0 151 46.5t102 123.5q9 24 13.5 50t4.5 52v5.5v5.5q-3 70 -39.5 134t-101.5 99q-19 11 -39 17.5t-41 10.5q-12 2 -24 3t-23 1q-86 0 -160 -53t-99 -142v0z" />
    <glyph glyph-name="asciitilde" unicode="&#x42e;" horiz-adv-x="867" 
d="M122 367h46q0 2 0.5 4.5t1.5 4.5v1.5v0.5q0 2 0.5 4t0.5 4q29 112 124 178t204 66q13 0 26 -1t26 -3q33 -5 65 -16.5t61 -30.5q67 -45 104.5 -117t39.5 -150v-3.5v-3.5q0 -8 -0.5 -15.5t-0.5 -15.5q-3 -23 -8.5 -46t-14.5 -44q-38 -94 -123.5 -145.5t-182.5 -51.5
q-15 0 -31 1.5t-31 4.5q-24 4 -47.5 11t-45.5 18q-72 37 -124 111t-52 157q0 3 0.5 7t1.5 8q0 3 0.5 7t0.5 7h-41v-319h-54v617h54v-250v0zM234 386q-1 -2 -1.5 -4.5t-0.5 -5.5q-2 -7 -3.5 -14.5t-3.5 -14.5q-2 -10 -3 -20t-1 -19q0 -93 60.5 -172t158.5 -97q6 -1 13.5 -2.5
t14.5 -2.5q6 0 11.5 -0.5t10.5 -0.5q80 0 151 46.5t102 123.5q9 24 13.5 50t4.5 52v5.5v5.5q-3 70 -39.5 134t-101.5 99q-19 11 -39 17.5t-41 10.5q-12 2 -24 3t-23 1q-86 0 -160 -53t-99 -142v0z" />
    <glyph glyph-name="germandbls" unicode="&#xdf;" horiz-adv-x="495" 
d="M68 0l221 294q-64 0 -109.5 35.5t-49.5 102.5v4.5v5.5q-1 3 -1 5.5v4.5q0 7 0.5 14t1.5 14q3 23 12.5 45t24.5 39q24 29 58.5 39.5t71.5 12.5q7 1 15 1h15h113v-617h-55v294h-34l-217 -294h-67v0zM386 341v227h-50h-8.5h-9.5q-49 -2 -90 -24.5t-41 -99.5v-0.5t1 -1.5
v-1.5v-0.5q0 -66 42 -83t92 -18h3.5h2.5h11t11 1h4h4q7 0 14.5 0.5t13.5 0.5v0z" />
    <glyph glyph-name="germandbls" unicode="&#x42f;" horiz-adv-x="495" 
d="M68 0l221 294q-64 0 -109.5 35.5t-49.5 102.5v4.5v5.5q-1 3 -1 5.5v4.5q0 7 0.5 14t1.5 14q3 23 12.5 45t24.5 39q24 29 58.5 39.5t71.5 12.5q7 1 15 1h15h113v-617h-55v294h-34l-217 -294h-67v0zM386 341v227h-50h-8.5h-9.5q-49 -2 -90 -24.5t-41 -99.5v-0.5t1 -1.5
v-1.5v-0.5q0 -66 42 -83t92 -18h3.5h2.5h11t11 1h4h4q7 0 14.5 0.5t13.5 0.5v0z" />
    <glyph glyph-name="agrave" unicode="&#xe0;" horiz-adv-x="455" 
d="M352 0v69q-22 -41 -53.5 -61.5t-80.5 -20.5q-73 0 -119.5 46t-54.5 116q0 2 -0.5 4.5t-0.5 5.5q-1 7 -1.5 14.5t-0.5 13.5q0 92 53 145t117 56h3.5h2.5q5 0 9.5 -0.5t9.5 -0.5q33 -4 64 -24t52 -57v68h51v-374h-51v0zM231 341h-8q-59 0 -91 -46.5t-35 -102.5v-5.5v-5.5
v-4v-4q2 -54 32.5 -98.5t87.5 -44.5h1t2 1v0h1h1h1q62 3 95 50.5t34 103.5v3v4v5q-2 53 -32.5 98t-88.5 46v0z" />
    <glyph glyph-name="agrave" unicode="&#x430;" horiz-adv-x="455" 
d="M352 0v69q-22 -41 -53.5 -61.5t-80.5 -20.5q-73 0 -119.5 46t-54.5 116q0 2 -0.5 4.5t-0.5 5.5q-1 7 -1.5 14.5t-0.5 13.5q0 92 53 145t117 56h3.5h2.5q5 0 9.5 -0.5t9.5 -0.5q33 -4 64 -24t52 -57v68h51v-374h-51v0zM231 341h-8q-59 0 -91 -46.5t-35 -102.5v-5.5v-5.5
v-4v-4q2 -54 32.5 -98.5t87.5 -44.5h1t2 1v0h1h1h1q62 3 95 50.5t34 103.5v3v4v5q-2 53 -32.5 98t-88.5 46v0z" />
    <glyph glyph-name="K" unicode="&#xe1;" horiz-adv-x="495" 
d="M104 311q29 32 70.5 53t87.5 21q5 0 11 -0.5t12 -0.5l12 -2t11 -2q68 -16 108.5 -72.5t40.5 -122.5q0 -9 -1 -19t-3 -19q-1 -10 -4 -20t-6 -19q-22 -55 -75.5 -88t-113.5 -33q-82 0 -138 55t-64 132q-1 14 -2 27.5t-1 27.5q0 13 0.5 26.5t2.5 27.5q6 66 26.5 126.5
t54.5 91.5q44 28 81.5 39t63.5 19q19 5 31.5 11.5t17.5 19.5h51q-6 -36 -33 -51t-64 -26q-17 -5 -35 -10.5t-37 -13.5q-12 -4 -23.5 -10t-22.5 -13q-28 -31 -41 -67t-18 -88v0zM256 31q62 2 104.5 48t42.5 108q0 61 -42.5 106.5t-104.5 45.5h-3q-62 0 -103.5 -48t-41.5 -107
q0 -5 0.5 -10t1.5 -10t2.5 -10t2.5 -10q11 -46 50.5 -79.5t90.5 -33.5v0z" />
    <glyph glyph-name="K" unicode="&#x431;" horiz-adv-x="495" 
d="M104 311q29 32 70.5 53t87.5 21q5 0 11 -0.5t12 -0.5l12 -2t11 -2q68 -16 108.5 -72.5t40.5 -122.5q0 -9 -1 -19t-3 -19q-1 -10 -4 -20t-6 -19q-22 -55 -75.5 -88t-113.5 -33q-82 0 -138 55t-64 132q-1 14 -2 27.5t-1 27.5q0 13 0.5 26.5t2.5 27.5q6 66 26.5 126.5
t54.5 91.5q44 28 81.5 39t63.5 19q19 5 31.5 11.5t17.5 19.5h51q-6 -36 -33 -51t-64 -26q-17 -5 -35 -10.5t-37 -13.5q-12 -4 -23.5 -10t-22.5 -13q-28 -31 -41 -67t-18 -88v0zM256 31q62 2 104.5 48t42.5 108q0 61 -42.5 106.5t-104.5 45.5h-3q-62 0 -103.5 -48t-41.5 -107
q0 -5 0.5 -10t1.5 -10t2.5 -10t2.5 -10q11 -46 50.5 -79.5t90.5 -33.5v0z" />
    <glyph glyph-name="quotedbl" unicode="&#xe2;" horiz-adv-x="353" 
d="M176 374q27 0 44 -4.5t30 -11.5q17 -10 28 -26t15 -33q1 -5 1.5 -9.5t0.5 -8.5q0 -26 -16 -49t-45 -33q42 -5 59.5 -31.5t17.5 -67.5q0 -48 -34.5 -71.5t-76.5 -27.5q-5 -1 -9.5 -1h-9.5h-139v374h134v0zM94 174v-128l98 -2q28 0 43.5 18.5t17.5 40.5v2.5v2.5v2.5v2.5
q-2 24 -18 43.5t-47 19.5l-94 -2v0zM94 221h85q29 0 46.5 15t17.5 40q0 22 -13.5 36.5t-50.5 14.5h-85v-106v0z" />
    <glyph glyph-name="quotedbl" unicode="&#x432;" horiz-adv-x="353" 
d="M176 374q27 0 44 -4.5t30 -11.5q17 -10 28 -26t15 -33q1 -5 1.5 -9.5t0.5 -8.5q0 -26 -16 -49t-45 -33q42 -5 59.5 -31.5t17.5 -67.5q0 -48 -34.5 -71.5t-76.5 -27.5q-5 -1 -9.5 -1h-9.5h-139v374h134v0zM94 174v-128l98 -2q28 0 43.5 18.5t17.5 40.5v2.5v2.5v2.5v2.5
q-2 24 -18 43.5t-47 19.5l-94 -2v0zM94 221h85q29 0 46.5 15t17.5 40q0 22 -13.5 36.5t-50.5 14.5h-85v-106v0z" />
    <glyph glyph-name="atilde" unicode="&#xe3;" horiz-adv-x="294" 
d="M52 0v374h201v-46h-149v-328h-52v0z" />
    <glyph glyph-name="atilde" unicode="&#x433;" horiz-adv-x="294" 
d="M52 0v374h201v-46h-149v-328h-52v0z" />
    <glyph glyph-name="adieresis" unicode="&#xe4;" horiz-adv-x="504" 
d="M60 46q4 0 9 4t10 9q3 3 5.5 6t5.5 6q4 5 7 9.5t5 8.5q10 22 16 57t9 73q3 40 4 76.5t1 57.5v15.5t1 5.5h275v-328h52v-143h-52v97h-315v-97h-52v143h19v0zM151 86q-2 -3 -4.5 -8t-5.5 -10q-4 -7 -9.5 -14t-10.5 -8h235v282h-175v-14q0 -16 -1 -49t-5 -69q-3 -32 -9 -62
t-15 -48v0z" />
    <glyph glyph-name="adieresis" unicode="&#x434;" horiz-adv-x="504" 
d="M60 46q4 0 9 4t10 9q3 3 5.5 6t5.5 6q4 5 7 9.5t5 8.5q10 22 16 57t9 73q3 40 4 76.5t1 57.5v15.5t1 5.5h275v-328h52v-143h-52v97h-315v-97h-52v143h19v0zM151 86q-2 -3 -4.5 -8t-5.5 -10q-4 -7 -9.5 -14t-10.5 -8h235v282h-175v-14q0 -16 -1 -49t-5 -69q-3 -32 -9 -62
t-15 -48v0z" />
    <glyph glyph-name="yright" unicode="&#xe5;" horiz-adv-x="444" 
d="M400 187h-296q3 -60 31 -108t96 -48q44 0 75 25.5t50 64.5l47 -27q-29 -52 -67.5 -79.5t-103.5 -27.5q-87 0 -136 57.5t-49 137.5q0 4 0.5 8t1.5 8q0 4 0.5 8t0.5 8q5 74 60 124t122 50q10 0 21 -1.5t22 -4.5q15 -4 30 -11t29 -18q34 -26 48.5 -62.5t16.5 -74.5
q1 -5 1 -10.5v-10.5v-8v0zM339 229q-4 50 -32.5 79.5t-80.5 29.5h-3q-49 -1 -79.5 -30.5t-36.5 -78.5h232v0z" />
    <glyph glyph-name="yright" unicode="&#x435;" horiz-adv-x="444" 
d="M400 187h-296q3 -60 31 -108t96 -48q44 0 75 25.5t50 64.5l47 -27q-29 -52 -67.5 -79.5t-103.5 -27.5q-87 0 -136 57.5t-49 137.5q0 4 0.5 8t1.5 8q0 4 0.5 8t0.5 8q5 74 60 124t122 50q10 0 21 -1.5t22 -4.5q15 -4 30 -11t29 -18q34 -26 48.5 -62.5t16.5 -74.5
q1 -5 1 -10.5v-10.5v-8v0zM339 229q-4 50 -32.5 79.5t-80.5 29.5h-3q-49 -1 -79.5 -30.5t-36.5 -78.5h232v0z" />
    <glyph glyph-name="guilsinglright" unicode="&#xe6;" horiz-adv-x="675" 
d="M565 0l-199 193v-193h-52v193l-201 -193h-71l215 207l-200 167h72l185 -167v167h52v-165l185 165h72l-201 -167l215 -207h-72v0z" />
    <glyph glyph-name="guilsinglright" unicode="&#x436;" horiz-adv-x="675" 
d="M565 0l-199 193v-193h-52v193l-201 -193h-71l215 207l-200 167h72l185 -167v167h52v-165l185 165h72l-201 -167l215 -207h-72v0z" />
    <glyph glyph-name="florin" unicode="&#xe7;" horiz-adv-x="403" 
d="M270 199q39 -4 62.5 -27.5t23.5 -66.5q-3 -61 -48 -89t-99 -28q-7 0 -14 0.5t-14 1.5q-39 5 -74.5 22.5t-56.5 45.5l39 35q1 0 8 -9.5t21 -20.5q13 -11 34 -20t49 -10q1 0 2 -0.5t2 -0.5t2 -0.5t2 -0.5h6t6 1q29 4 53 26.5t24 54.5q-4 38 -30.5 49t-57.5 12h-6h-6h-44v44
h6.5h7.5q0 -1 1 -1h2h5.5h5.5q7 0 15 0.5t15 0.5q28 3 51.5 14.5t23.5 40.5v6q-1 25 -19.5 43.5t-64.5 18.5q-34 0 -66 -14.5t-52 -40.5l-35 31l10 11t30 24q19 12 47 23t64 11q20 0 44 -4.5t49 -14.5l7.5 -5t16.5 -14t16.5 -22t7.5 -29q0 -43 -16.5 -64.5t-55.5 -33.5v0z
" />
    <glyph glyph-name="florin" unicode="&#x437;" horiz-adv-x="403" 
d="M270 199q39 -4 62.5 -27.5t23.5 -66.5q-3 -61 -48 -89t-99 -28q-7 0 -14 0.5t-14 1.5q-39 5 -74.5 22.5t-56.5 45.5l39 35q1 0 8 -9.5t21 -20.5q13 -11 34 -20t49 -10q1 0 2 -0.5t2 -0.5t2 -0.5t2 -0.5h6t6 1q29 4 53 26.5t24 54.5q-4 38 -30.5 49t-57.5 12h-6h-6h-44v44
h6.5h7.5q0 -1 1 -1h2h5.5h5.5q7 0 15 0.5t15 0.5q28 3 51.5 14.5t23.5 40.5v6q-1 25 -19.5 43.5t-64.5 18.5q-34 0 -66 -14.5t-52 -40.5l-35 31l10 11t30 24q19 12 47 23t64 11q20 0 44 -4.5t49 -14.5l7.5 -5t16.5 -14t16.5 -22t7.5 -29q0 -43 -16.5 -64.5t-55.5 -33.5v0z
" />
    <glyph glyph-name="comma" unicode="&#xe8;" horiz-adv-x="424" 
d="M53 -22v396h51v-278l263 298v-394h-51v268l-263 -290v0z" />
    <glyph glyph-name="comma" unicode="&#x438;" horiz-adv-x="424" 
d="M53 -22v396h51v-278l263 298v-394h-51v268l-263 -290v0z" />
    <glyph glyph-name="L" unicode="&#xe9;" horiz-adv-x="424" 
d="M53 -22v396h51v-278l263 298v-394h-51v270l-263 -292v0zM209 460q21 0 32.5 5t16.5 11q4 5 5 9t1 6v5h47v-3q0 -4 -2.5 -12.5t-9.5 -18.5q-10 -12 -31 -22.5t-59 -10.5q-40 0 -62 10.5t-32 22.5q-9 12 -11 22t-2 11l2 1h47l-2 -1q0 -1 1 -6.5t6 -10.5q6 -7 18 -12.5
t35 -5.5v0z" />
    <glyph glyph-name="L" unicode="&#x439;" horiz-adv-x="424" 
d="M53 -22v396h51v-278l263 298v-394h-51v270l-263 -292v0zM209 460q21 0 32.5 5t16.5 11q4 5 5 9t1 6v5h47v-3q0 -4 -2.5 -12.5t-9.5 -18.5q-10 -12 -31 -22.5t-59 -10.5q-40 0 -62 10.5t-32 22.5q-9 12 -11 22t-2 11l2 1h47l-2 -1q0 -1 1 -6.5t6 -10.5q6 -7 18 -12.5
t35 -5.5v0z" />
    <glyph glyph-name="asterisk" unicode="&#xea;" horiz-adv-x="424" 
d="M60 0v374h51v-167l186 167h72l-201 -167l215 -207h-71l-201 193v-193h-51v0z" />
    <glyph glyph-name="asterisk" unicode="&#x43a;" horiz-adv-x="424" 
d="M60 0v374h51v-167l186 167h72l-201 -167l215 -207h-71l-201 193v-193h-51v0z" />
    <glyph glyph-name="edieresis" unicode="&#xeb;" horiz-adv-x="435" 
d="M378 0h-50v328h-162v0v0q0 -4 -2 -55.5t-12 -112.5q-6 -40 -17 -78t-28 -62q-7 -9 -15 -14.5t-16 -8.5q-15 -7 -28 -8t-21 -2h-0.5h-1.5v48l3 -2q8 0 19.5 4.5t23.5 20.5q14 19 22.5 62t13.5 90q6 62 7.5 113l1.5 51h262v-374v0z" />
    <glyph glyph-name="edieresis" unicode="&#x43b;" horiz-adv-x="435" 
d="M378 0h-50v328h-162v0v0q0 -4 -2 -55.5t-12 -112.5q-6 -40 -17 -78t-28 -62q-7 -9 -15 -14.5t-16 -8.5q-15 -7 -28 -8t-21 -2h-0.5h-1.5v48l3 -2q8 0 19.5 4.5t23.5 20.5q14 19 22.5 62t13.5 90q6 62 7.5 113l1.5 51h262v-374v0z" />
    <glyph glyph-name="igrave" unicode="&#xec;" horiz-adv-x="575" 
d="M286 -16l-151 288l-42 -272h-51l69 397l176 -328l182 328l66 -397h-55l-36 276l-158 -292v0z" />
    <glyph glyph-name="igrave" unicode="&#x43c;" horiz-adv-x="575" 
d="M286 -16l-151 288l-42 -272h-51l69 397l176 -328l182 328l66 -397h-55l-36 276l-158 -292v0z" />
    <glyph glyph-name="ellipsis" unicode="&#xed;" horiz-adv-x="403" 
d="M100 212h201v162h52v-374h-52v162h-201v-162h-51v374h51v-162v0z" />
    <glyph glyph-name="ellipsis" unicode="&#x43d;" horiz-adv-x="403" 
d="M100 212h201v162h52v-374h-52v162h-201v-162h-51v374h51v-162v0z" />
    <glyph glyph-name="percent" unicode="&#xee;" horiz-adv-x="484" 
d="M243 -14q-83 1 -142.5 58.5t-59.5 137.5q0 3 0.5 7t1.5 8v0.5v0.5q0 4 0.5 7.5t0.5 6.5q11 77 68.5 125.5t130.5 48.5q14 0 27.5 -2t26.5 -4q68 -16 108.5 -72.5t40.5 -122.5q0 -9 -1 -19t-3 -19q-1 -10 -4 -20t-6 -19q-22 -55 -75.5 -88t-113.5 -33v-1zM104 144
q11 -46 50.5 -79.5t90.5 -33.5q62 2 104.5 48t42.5 108q0 61 -42.5 106.5t-104.5 45.5h-3q-62 0 -103.5 -48t-41.5 -107q0 -5 0.5 -10t1.5 -10t2.5 -10t2.5 -10v0z" />
    <glyph glyph-name="percent" unicode="&#x43e;" horiz-adv-x="484" 
d="M243 -14q-83 1 -142.5 58.5t-59.5 137.5q0 3 0.5 7t1.5 8v0.5v0.5q0 4 0.5 7.5t0.5 6.5q11 77 68.5 125.5t130.5 48.5q14 0 27.5 -2t26.5 -4q68 -16 108.5 -72.5t40.5 -122.5q0 -9 -1 -19t-3 -19q-1 -10 -4 -20t-6 -19q-22 -55 -75.5 -88t-113.5 -33v-1zM104 144
q11 -46 50.5 -79.5t90.5 -33.5q62 2 104.5 48t42.5 108q0 61 -42.5 106.5t-104.5 45.5h-3q-62 0 -103.5 -48t-41.5 -107q0 -5 0.5 -10t1.5 -10t2.5 -10t2.5 -10v0z" />
    <glyph glyph-name="C" unicode="&#xef;" horiz-adv-x="403" 
d="M301 327h-201v-327h-51v374h304v-374h-52v327v0z" />
    <glyph glyph-name="C" unicode="&#x43f;" horiz-adv-x="403" 
d="M301 327h-201v-327h-51v374h304v-374h-52v327v0z" />
    <glyph glyph-name="eth" unicode="&#xf0;" horiz-adv-x="454" 
d="M49 -187v561h48v-71q22 40 57 61.5t74 23.5h2.5h3.5h6.5t6.5 -1q60 -5 109 -57t49 -146l2 -2q0 -78 -42.5 -136t-125.5 -59l-7 -1q-46 1 -79 22t-56 61v-256h-48v0zM350 182v5v4v5q-2 53 -29.5 98t-88.5 47h-6q-64 0 -96 -47t-33 -103v-1.5v-1.5v-4v-4q3 -56 37 -102.5
t95 -46.5q62 0 91.5 44t29.5 101v6v0z" />
    <glyph glyph-name="eth" unicode="&#x440;" horiz-adv-x="454" 
d="M49 -187v561h48v-71q22 40 57 61.5t74 23.5h2.5h3.5h6.5t6.5 -1q60 -5 109 -57t49 -146l2 -2q0 -78 -42.5 -136t-125.5 -59l-7 -1q-46 1 -79 22t-56 61v-256h-48v0zM350 182v5v4v5q-2 53 -29.5 98t-88.5 47h-6q-64 0 -96 -47t-33 -103v-1.5v-1.5v-4v-4q3 -56 37 -102.5
t95 -46.5q62 0 91.5 44t29.5 101v6v0z" />
    <glyph glyph-name="quotedblleft" unicode="&#xf1;" horiz-adv-x="414" 
d="M359 306q-15 10 -31 17t-33 11q-14 3 -28 5t-27 2q-60 0 -104.5 -39.5t-44.5 -119.5q0 -54 32 -97.5t84 -53.5q3 0 6.5 -0.5t7.5 -1.5h2h1q5 -1 9.5 -1.5t8.5 -0.5q33 0 65 12.5t59 29.5v-55q-18 -8 -39 -14.5t-42 -9.5q-11 -3 -23 -4t-23 -1q-7 0 -15 0.5t-16 1.5
q-11 2 -22.5 4.5t-22.5 6.5q-60 18 -92.5 71t-32.5 113v3t1 4v3v3q4 93 67 143t142 50q11 0 23 -1t24 -3q16 -3 32.5 -8.5t31.5 -12.5v-57v0z" />
    <glyph glyph-name="quotedblleft" unicode="&#x441;" horiz-adv-x="414" 
d="M359 306q-15 10 -31 17t-33 11q-14 3 -28 5t-27 2q-60 0 -104.5 -39.5t-44.5 -119.5q0 -54 32 -97.5t84 -53.5q3 0 6.5 -0.5t7.5 -1.5h2h1q5 -1 9.5 -1.5t8.5 -0.5q33 0 65 12.5t59 29.5v-55q-18 -8 -39 -14.5t-42 -9.5q-11 -3 -23 -4t-23 -1q-7 0 -15 0.5t-16 1.5
q-11 2 -22.5 4.5t-22.5 6.5q-60 18 -92.5 71t-32.5 113v3t1 4v3v3q4 93 67 143t142 50q11 0 23 -1t24 -3q16 -3 32.5 -8.5t31.5 -12.5v-57v0z" />
    <glyph glyph-name="two" unicode="&#xf2;" horiz-adv-x="363" 
d="M31 327v47h303v-46h-125v-328h-52v327h-126v0z" />
    <glyph glyph-name="two" unicode="&#x442;" horiz-adv-x="363" 
d="M31 327v47h303v-46h-125v-328h-52v327h-126v0z" />
    <glyph glyph-name="three" unicode="&#xf3;" horiz-adv-x="385" 
d="M36 374h57l106 -292l98 292h55l-193 -561h-54l66 190l-135 371v0z" />
    <glyph glyph-name="three" unicode="&#x443;" horiz-adv-x="385" 
d="M36 374h57l106 -292l98 292h55l-193 -561h-54l66 190l-135 371v0z" />
    <glyph glyph-name="ocircumflex" unicode="&#xf4;" horiz-adv-x="524" 
d="M235 -14q-82 5 -140.5 62.5t-58.5 136.5q0 3 0.5 6.5t1.5 7.5q0 3 0.5 6.5t0.5 6.5q11 74 68 123t128 53v158h54v-158q71 -4 127.5 -53t67.5 -123v-6.5t1 -6.5v-7.5v-6.5q0 -79 -57.5 -136.5t-138.5 -61.5v-125h-54v124v0zM99 144q12 -46 50 -78t86 -36v308
q-61 -3 -101.5 -50.5t-40.5 -105.5q0 -4 0.5 -8t0.5 -9q1 -5 2.5 -10.5t2.5 -10.5v0zM289 338v-308q48 4 85.5 36t49.5 78q2 10 3.5 19.5t1.5 18.5q0 58 -40 105.5t-100 50.5v0z" />
    <glyph glyph-name="ocircumflex" unicode="&#x444;" horiz-adv-x="524" 
d="M235 -14q-82 5 -140.5 62.5t-58.5 136.5q0 3 0.5 6.5t1.5 7.5q0 3 0.5 6.5t0.5 6.5q11 74 68 123t128 53v158h54v-158q71 -4 127.5 -53t67.5 -123v-6.5t1 -6.5v-7.5v-6.5q0 -79 -57.5 -136.5t-138.5 -61.5v-125h-54v124v0zM99 144q12 -46 50 -78t86 -36v308
q-61 -3 -101.5 -50.5t-40.5 -105.5q0 -4 0.5 -8t0.5 -9q1 -5 2.5 -10.5t2.5 -10.5v0zM289 338v-308q48 4 85.5 36t49.5 78q2 10 3.5 19.5t1.5 18.5q0 58 -40 105.5t-100 50.5v0z" />
    <glyph glyph-name="otilde" unicode="&#xf5;" horiz-adv-x="414" 
d="M52 374h64l91 -137l91 137h65l-126 -179l138 -195h-64l-104 152l-103 -152h-65l138 195l-125 179v0z" />
    <glyph glyph-name="otilde" unicode="&#x445;" horiz-adv-x="414" 
d="M52 374h64l91 -137l91 137h65l-126 -179l138 -195h-64l-104 152l-103 -152h-65l138 195l-125 179v0z" />
    <glyph glyph-name="odieresis" unicode="&#xf6;" horiz-adv-x="454" 
d="M358 0h-314v374h50v-327h214v327h50v-328h52v-143h-52v97v0z" />
    <glyph glyph-name="odieresis" unicode="&#x446;" horiz-adv-x="454" 
d="M358 0h-314v374h50v-327h214v327h50v-328h52v-143h-52v97v0z" />
    <glyph glyph-name="divide" unicode="&#xf7;" horiz-adv-x="394" 
d="M292 220v154h52v-374h-52v171q-21 -16 -46.5 -28.5t-71.5 -12.5q-54 0 -94.5 28t-40.5 74v142h52v-142v-2.5v-2.5q3 -22 25.5 -40.5t59.5 -18.5q1 0 2.5 0.5t3.5 0.5t3.5 0.5t2.5 0.5q31 2 52 13t40 27q3 2 6 4.5t6 5.5v0z" />
    <glyph glyph-name="divide" unicode="&#x447;" horiz-adv-x="394" 
d="M292 220v154h52v-374h-52v171q-21 -16 -46.5 -28.5t-71.5 -12.5q-54 0 -94.5 28t-40.5 74v142h52v-142v-2.5v-2.5q3 -22 25.5 -40.5t59.5 -18.5q1 0 2.5 0.5t3.5 0.5t3.5 0.5t2.5 0.5q31 2 52 13t40 27q3 2 6 4.5t6 5.5v0z" />
    <glyph glyph-name="oslash" unicode="&#xf8;" horiz-adv-x="686" 
d="M102 47h210v327h52v-327h212v327h52v-374h-578v374h52v-327v0z" />
    <glyph glyph-name="oslash" unicode="&#x448;" horiz-adv-x="686" 
d="M102 47h210v327h52v-327h212v327h52v-374h-578v374h52v-327v0z" />
    <glyph glyph-name="question" unicode="&#xf9;" horiz-adv-x="725" 
d="M633 46h51v-143h-51v97h-578v374h52v-327h210v327h52v-327h212v327h52v-328v0z" />
    <glyph glyph-name="question" unicode="&#x449;" horiz-adv-x="725" 
d="M633 46h51v-143h-51v97h-578v374h52v-327h210v327h52v-327h212v327h52v-328v0z" />
    <glyph glyph-name="A" unicode="&#xfa;" horiz-adv-x="414" 
d="M111 325h-92v49h144v-153h63q53 0 97 -26.5t44 -84.5v-10q-2 -50 -39.5 -74t-81.5 -26h-3.5h-2.5h-129v325v0zM163 174v-128l83 -2q26 0 46 17.5t20 51.5q0 29 -21.5 46t-50.5 17l-77 -2v0z" />
    <glyph glyph-name="A" unicode="&#x44a;" horiz-adv-x="414" 
d="M111 325h-92v49h144v-153h63q53 0 97 -26.5t44 -84.5v-10q-2 -50 -39.5 -74t-81.5 -26h-3.5h-2.5h-129v325v0zM163 174v-128l83 -2q26 0 46 17.5t20 51.5q0 29 -21.5 46t-50.5 17l-77 -2v0z" />
    <glyph glyph-name="slash" unicode="&#xfb;" horiz-adv-x="454" 
d="M171 223q56 0 97 -30.5t41 -92.5q0 -42 -31.5 -67t-69.5 -31q-6 -1 -11.5 -1.5t-11.5 -0.5h-132v374h52v-151h66v0zM105 46l83 -2q32 0 47.5 19.5t15.5 43.5v4v4q-3 23 -20 42t-47 19l-79 -2v-128v0zM402 374v-374h-52v374h52v0z" />
    <glyph glyph-name="slash" unicode="&#x44b;" horiz-adv-x="454" 
d="M171 223q56 0 97 -30.5t41 -92.5q0 -42 -31.5 -67t-69.5 -31q-6 -1 -11.5 -1.5t-11.5 -0.5h-132v374h52v-151h66v0zM105 46l83 -2q32 0 47.5 19.5t15.5 43.5v4v4q-3 23 -20 42t-47 19l-79 -2v-128v0zM402 374v-374h-52v374h52v0z" />
    <glyph glyph-name="udieresis" unicode="&#xfc;" horiz-adv-x="353" 
d="M170 223q56 0 97 -30.5t41 -92.5q0 -41 -30.5 -66t-67.5 -32q-7 -1 -13.5 -1.5t-12.5 -0.5h-132v374h52v-151h66v0zM104 174v-128l83 -2q32 0 47.5 19.5t15.5 43.5v4v4q-3 23 -20.5 42t-47.5 19l-78 -2v0z" />
    <glyph glyph-name="udieresis" unicode="&#x44c;" horiz-adv-x="353" 
d="M170 223q56 0 97 -30.5t41 -92.5q0 -41 -30.5 -66t-67.5 -32q-7 -1 -13.5 -1.5t-12.5 -0.5h-132v374h52v-151h66v0zM104 174v-128l83 -2q32 0 47.5 19.5t15.5 43.5v4v4q-3 23 -20.5 42t-47.5 19l-78 -2v0z" />
    <glyph glyph-name="period" unicode="&#xfd;" horiz-adv-x="414" 
d="M52 363q15 8 32 13t34 8q11 2 22 3t22 1q79 0 143 -50t69 -143v-10v-2v-2q-1 -60 -33 -113t-91 -70q-10 -3 -21 -6t-23 -4q-8 -2 -16.5 -2.5t-16.5 -0.5q-33 0 -65.5 8t-61.5 21v55q22 -15 48 -25.5t52 -13.5q6 -1 12 -1.5t12 -0.5q38 0 73 17.5t57 54.5q5 10 8.5 21
t5.5 23q1 4 1.5 9t1.5 9h-223v50h225q-1 9 -3 16.5t-5 15.5q-1 4 -2.5 8.5t-3.5 9.5q-19 39 -56 59t-79 20q-13 0 -26.5 -2t-27.5 -6q-16 -4 -32.5 -11t-31.5 -16v57v0z" />
    <glyph glyph-name="period" unicode="&#x44d;" horiz-adv-x="414" 
d="M52 363q15 8 32 13t34 8q11 2 22 3t22 1q79 0 143 -50t69 -143v-10v-2v-2q-1 -60 -33 -113t-91 -70q-10 -3 -21 -6t-23 -4q-8 -2 -16.5 -2.5t-16.5 -0.5q-33 0 -65.5 8t-61.5 21v55q22 -15 48 -25.5t52 -13.5q6 -1 12 -1.5t12 -0.5q38 0 73 17.5t57 54.5q5 10 8.5 21
t5.5 23q1 4 1.5 9t1.5 9h-223v50h225q-1 9 -3 16.5t-5 15.5q-1 4 -2.5 8.5t-3.5 9.5q-19 39 -56 59t-79 20q-13 0 -26.5 -2t-27.5 -6q-16 -4 -32.5 -11t-31.5 -16v57v0z" />
    <glyph glyph-name="thorn" unicode="&#xfe;" horiz-adv-x="595" 
d="M104 374v-162h48l2.5 10.5t6.5 23.5q2 5 4 10.5t4 10.5q0 1 0.5 2.5t1.5 2.5q25 53 74.5 83.5t107.5 30.5q9 0 18 -1l18 -2q4 -1 9 -1.5t9 -1.5q68 -16 108.5 -72.5t40.5 -122.5q0 -9 -1 -19t-3 -19q-1 -10 -4 -20t-6 -19q-24 -55 -76.5 -88t-113.5 -33
q-76 0 -135.5 49.5t-67.5 125.5h-45v-162h-54v374h54v0zM355 339l-3 -1q-63 0 -104 -47t-41 -106q0 -5 0.5 -11t2.5 -12q0 -5 1.5 -9.5t2.5 -8.5q11 -46 50 -79.5t91 -33.5q62 2 104 48t42 108q0 61 -42 106.5t-104 45.5v0z" />
    <glyph glyph-name="thorn" unicode="&#x44e;" horiz-adv-x="595" 
d="M104 374v-162h48l2.5 10.5t6.5 23.5q2 5 4 10.5t4 10.5q0 1 0.5 2.5t1.5 2.5q25 53 74.5 83.5t107.5 30.5q9 0 18 -1l18 -2q4 -1 9 -1.5t9 -1.5q68 -16 108.5 -72.5t40.5 -122.5q0 -9 -1 -19t-3 -19q-1 -10 -4 -20t-6 -19q-24 -55 -76.5 -88t-113.5 -33
q-76 0 -135.5 49.5t-67.5 125.5h-45v-162h-54v374h54v0zM355 339l-3 -1q-63 0 -104 -47t-41 -106q0 -5 0.5 -11t2.5 -12q0 -5 1.5 -9.5t2.5 -8.5q11 -46 50 -79.5t91 -33.5q62 2 104 48t42 108q0 61 -42 106.5t-104 45.5v0z" />
    <glyph glyph-name="ydieresis" unicode="&#xff;" horiz-adv-x="435" 
d="M283 162l-176 -162h-66l183 171q-58 0 -88 22.5t-32 65.5v1.5t-1 0.5v1v0q0 1 -0.5 2l-0.5 1q0 27 10 47.5t29 36.5q23 16 47.5 20.5t53.5 4.5h139v-374h-53v162h-45v0zM328 327h-105q-27 0 -46.5 -13.5t-19.5 -45.5q0 -33 22 -44t53 -14h96v117v0z" />
    <glyph glyph-name="ydieresis" unicode="&#x44f;" horiz-adv-x="435" 
d="M283 162l-176 -162h-66l183 171q-58 0 -88 22.5t-32 65.5v1.5t-1 0.5v1v0q0 1 -0.5 2l-0.5 1q0 27 10 47.5t29 36.5q23 16 47.5 20.5t53.5 4.5h139v-374h-53v162h-45v0zM328 327h-105q-27 0 -46.5 -13.5t-19.5 -45.5q0 -33 22 -44t53 -14h96v117v0z" />
    <glyph glyph-name="amacron" unicode="&#x101;" 
 />
    <glyph glyph-name="OE" unicode="&#x152;" 
 />
    <glyph glyph-name="glyph258" unicode="&#x153;" 
 />
    <glyph glyph-name="perthousand" unicode="&#x160;" 
 />
    <glyph glyph-name="seven" unicode="&#x161;" 
 />
    <glyph glyph-name="glyph259" unicode="&#x178;" 
 />
    <glyph glyph-name="less" unicode="&#x192;" 
 />
    <glyph glyph-name="glyph237" unicode="&#x2c6;" 
 />
    <glyph glyph-name="six" unicode="&#x2dc;" 
 />
    <glyph glyph-name="numbersign" unicode="&#x2013;" 
 />
    <glyph glyph-name="O" unicode="&#x2014;" 
 />
    <glyph glyph-name="four" unicode="&#x2018;" 
 />
    <glyph glyph-name="quoteright" unicode="&#x2019;" 
 />
    <glyph glyph-name="parenleft" unicode="&#x201a;" 
 />
    <glyph glyph-name="oe" unicode="&#x201c;" 
 />
    <glyph glyph-name="B" unicode="&#x201d;" 
 />
    <glyph glyph-name="greater" unicode="&#x201e;" 
 />
    <glyph glyph-name="glyph233" unicode="&#x2020;" 
 />
    <glyph glyph-name="glyph236" unicode="&#x2021;" 
 />
    <glyph glyph-name="glyph257" unicode="&#x2022;" 
 />
    <glyph glyph-name="glyph232" unicode="&#x2026;" 
 />
    <glyph glyph-name="v" unicode="&#x2030;" 
 />
    <glyph glyph-name="glyph243" unicode="&#x2039;" 
 />
    <glyph glyph-name="eight" unicode="&#x203a;" 
 />
    <glyph glyph-name="dollar" unicode="&#x2122;" 
 />
    <glyph glyph-name="periodcentered" unicode="&#x2219;" 
 />
    <glyph glyph-name="s" 
 />
    <glyph glyph-name="backslash" 
 />
    <glyph glyph-name="nine" 
 />
    <glyph glyph-name="colon" 
 />
    <glyph glyph-name="Y" 
 />
    <glyph glyph-name="X" 
 />
    <glyph glyph-name="asciicircum" 
 />
    <glyph glyph-name="semicolon" 
 />
    <glyph glyph-name="equal" 
 />
    <glyph glyph-name="exclam" 
 />
    <glyph glyph-name="five" 
 />
    <glyph glyph-name="Q" 
 />
    <glyph glyph-name="quotedblright" 
 />
    <glyph glyph-name="hyphen" 
 />
    <glyph glyph-name="space" 
 />
    <glyph glyph-name="E" 
 />
    <glyph glyph-name="M" 
 />
    <glyph glyph-name="plus" 
 />
    <glyph glyph-name="glyph229" 
 />
    <glyph glyph-name="glyph230" 
 />
    <glyph glyph-name="glyph231" 
 />
    <glyph glyph-name="glyph234" 
 />
    <glyph glyph-name="glyph235" 
 />
    <glyph glyph-name="glyph238" 
 />
    <glyph glyph-name="glyph239" 
 />
    <glyph glyph-name="glyph240" 
 />
    <glyph glyph-name="glyph241" 
 />
    <glyph glyph-name="glyph242" 
 />
    <glyph glyph-name="glyph244" 
 />
    <glyph glyph-name="glyph245" 
 />
    <glyph glyph-name="glyph246" 
 />
    <glyph glyph-name="glyph247" 
 />
    <glyph glyph-name="glyph248" 
 />
    <glyph glyph-name="glyph249" 
 />
    <glyph glyph-name="glyph250" 
 />
    <glyph glyph-name="glyph251" 
 />
    <glyph glyph-name="glyph252" 
 />
    <glyph glyph-name="glyph253" 
 />
    <glyph glyph-name="glyph254" 
 />
    <glyph glyph-name="glyph255" 
 />
    <glyph glyph-name="glyph256" 
 />
    <glyph glyph-name="glyph268" 
 />
    <glyph glyph-name="glyph269" 
 />
    <glyph glyph-name="glyph270" 
 />
    <glyph glyph-name="glyph271" 
 />
    <glyph glyph-name="glyph272" 
 />
    <glyph glyph-name="glyph273" 
 />
    <glyph glyph-name="glyph274" 
 />
    <glyph glyph-name="glyph275" 
 />
    <glyph glyph-name="glyph276" 
 />
    <glyph glyph-name="glyph277" 
 />
    <glyph glyph-name="glyph278" 
 />
    <glyph glyph-name="glyph279" 
 />
    <glyph glyph-name="glyph280" 
 />
    <glyph glyph-name="glyph281" 
 />
    <glyph glyph-name="glyph282" 
 />
    <glyph glyph-name="glyph283" 
 />
    <glyph glyph-name="glyph284" 
 />
    <glyph glyph-name="glyph285" 
 />
    <glyph glyph-name="glyph286" 
 />
    <glyph glyph-name="glyph287" 
 />
    <glyph glyph-name="glyph288" 
 />
    <glyph glyph-name="glyph289" 
 />
    <glyph glyph-name="glyph290" 
 />
    <glyph glyph-name="glyph291" 
 />
    <glyph glyph-name="glyph292" 
 />
    <glyph glyph-name="glyph293" 
 />
    <glyph glyph-name="glyph294" 
 />
    <glyph glyph-name="glyph295" 
 />
    <glyph glyph-name="glyph296" 
 />
    <glyph glyph-name="glyph297" 
 />
    <glyph glyph-name="glyph298" 
 />
    <glyph glyph-name="glyph299" 
 />
    <glyph glyph-name="glyph300" 
 />
    <glyph glyph-name="glyph301" 
 />
    <glyph glyph-name="glyph302" 
 />
    <glyph glyph-name="glyph303" 
 />
    <glyph glyph-name="glyph304" 
 />
    <glyph glyph-name="glyph305" 
 />
    <glyph glyph-name="glyph306" 
 />
    <glyph glyph-name="glyph307" 
 />
    <glyph glyph-name="glyph308" 
 />
    <glyph glyph-name="glyph309" 
 />
    <glyph glyph-name="glyph310" 
 />
    <glyph glyph-name="glyph311" 
 />
    <glyph glyph-name="glyph312" 
 />
    <glyph glyph-name="glyph313" 
 />
    <glyph glyph-name="glyph314" 
 />
    <glyph glyph-name="glyph315" 
 />
    <glyph glyph-name="glyph316" 
 />
    <glyph glyph-name="glyph317" 
 />
    <glyph glyph-name="glyph318" 
 />
    <glyph glyph-name="glyph319" 
 />
    <glyph glyph-name="glyph320" 
 />
    <glyph glyph-name="glyph321" 
 />
    <glyph glyph-name="glyph322" 
 />
    <glyph glyph-name="glyph323" 
 />
    <glyph glyph-name="glyph324" 
 />
    <glyph glyph-name="glyph325" 
 />
    <glyph glyph-name="glyph326" 
 />
    <glyph glyph-name="glyph327" 
 />
    <glyph glyph-name="glyph328" 
 />
    <glyph glyph-name="glyph329" 
 />
    <glyph glyph-name="glyph330" 
 />
    <glyph glyph-name="glyph331" 
 />
    <glyph glyph-name="glyph332" 
 />
    <glyph glyph-name="glyph333" 
 />
    <glyph glyph-name="glyph334" 
 />
    <glyph glyph-name="glyph335" 
 />
    <glyph glyph-name="glyph336" 
 />
    <glyph glyph-name="glyph337" 
 />
    <glyph glyph-name="glyph338" 
 />
    <glyph glyph-name="glyph339" 
 />
    <glyph glyph-name="glyph340" 
 />
    <glyph glyph-name="glyph341" 
 />
    <glyph glyph-name="glyph342" 
 />
    <glyph glyph-name="glyph343" 
 />
    <glyph glyph-name="glyph344" 
 />
    <glyph glyph-name="glyph345" 
 />
    <glyph glyph-name="glyph346" 
 />
    <glyph glyph-name="glyph347" 
 />
    <glyph glyph-name="glyph348" 
 />
    <glyph glyph-name="glyph349" 
 />
    <glyph glyph-name="glyph350" 
 />
    <glyph glyph-name="glyph351" 
 />
    <glyph glyph-name="glyph352" 
 />
    <glyph glyph-name="glyph353" 
 />
    <glyph glyph-name="glyph354" 
 />
    <glyph glyph-name="glyph355" 
 />
    <glyph glyph-name="glyph356" 
 />
    <glyph glyph-name="glyph357" 
 />
    <glyph glyph-name="glyph358" 
 />
    <glyph glyph-name="glyph359" 
 />
    <glyph glyph-name="glyph360" 
 />
    <glyph glyph-name="glyph361" 
 />
    <glyph glyph-name="glyph362" 
 />
    <glyph glyph-name="glyph363" 
 />
    <glyph glyph-name="glyph364" 
 />
    <glyph glyph-name="glyph365" 
 />
    <glyph glyph-name="glyph366" 
 />
    <glyph glyph-name="glyph367" 
 />
    <glyph glyph-name="glyph368" 
 />
    <glyph glyph-name="glyph369" 
 />
    <glyph glyph-name="glyph370" 
 />
    <glyph glyph-name="glyph371" 
 />
    <glyph glyph-name="glyph372" 
 />
    <glyph glyph-name="glyph373" 
 />
    <glyph glyph-name="glyph374" 
 />
    <glyph glyph-name="glyph375" 
 />
    <glyph glyph-name="glyph376" 
 />
    <glyph glyph-name="glyph377" 
 />
    <glyph glyph-name="glyph378" 
 />
    <glyph glyph-name="glyph379" 
 />
    <glyph glyph-name="glyph380" 
 />
    <glyph glyph-name="glyph381" 
 />
    <glyph glyph-name="glyph382" 
 />
    <glyph glyph-name="glyph383" 
 />
    <glyph glyph-name="glyph384" 
 />
    <glyph glyph-name="glyph385" 
 />
    <glyph glyph-name="glyph386" 
 />
    <glyph glyph-name="glyph387" 
 />
    <glyph glyph-name="glyph388" 
 />
    <glyph glyph-name="glyph389" 
 />
    <glyph glyph-name="glyph390" 
 />
    <glyph glyph-name="glyph391" 
 />
    <glyph glyph-name="glyph392" 
 />
    <glyph glyph-name="glyph393" 
 />
    <glyph glyph-name="glyph394" 
 />
    <glyph glyph-name="glyph395" 
 />
    <glyph glyph-name="glyph396" 
 />
    <glyph glyph-name="glyph397" 
 />
    <glyph glyph-name="glyph398" 
 />
    <glyph glyph-name="glyph399" 
 />
    <glyph glyph-name="glyph400" 
 />
    <glyph glyph-name="glyph401" 
 />
    <glyph glyph-name="glyph402" 
 />
    <glyph glyph-name="glyph403" 
 />
    <glyph glyph-name="glyph404" 
 />
    <glyph glyph-name="glyph405" 
 />
    <glyph glyph-name="glyph406" 
 />
    <glyph glyph-name="glyph407" 
 />
    <glyph glyph-name="glyph408" 
 />
    <glyph glyph-name="glyph409" 
 />
    <glyph glyph-name="glyph410" 
 />
    <glyph glyph-name="glyph411" 
 />
    <glyph glyph-name="glyph412" 
 />
    <glyph glyph-name="glyph413" 
 />
    <glyph glyph-name="glyph414" 
 />
    <glyph glyph-name="glyph415" 
 />
    <glyph glyph-name="glyph416" 
 />
    <glyph glyph-name="glyph417" 
 />
    <glyph glyph-name="glyph418" 
 />
    <glyph glyph-name="glyph419" 
 />
    <glyph glyph-name="glyph420" 
 />
    <glyph glyph-name="glyph421" 
 />
    <glyph glyph-name="glyph422" 
 />
    <glyph glyph-name="glyph423" 
 />
    <glyph glyph-name="glyph424" 
 />
    <glyph glyph-name="glyph425" 
 />
    <glyph glyph-name="glyph426" 
 />
    <glyph glyph-name="glyph427" 
 />
    <glyph glyph-name="glyph428" 
 />
    <glyph glyph-name="glyph429" 
 />
    <glyph glyph-name="glyph430" 
 />
    <glyph glyph-name="glyph431" 
 />
    <glyph glyph-name="glyph432" 
 />
    <glyph glyph-name="glyph433" 
 />
    <glyph glyph-name="glyph434" 
 />
    <glyph glyph-name="glyph435" 
 />
    <glyph glyph-name="glyph436" 
 />
    <glyph glyph-name="glyph437" 
 />
    <glyph glyph-name="glyph438" 
 />
    <glyph glyph-name="glyph439" 
 />
    <glyph glyph-name="glyph440" 
 />
    <glyph glyph-name="glyph441" 
 />
    <glyph glyph-name="glyph442" 
 />
    </font>
</defs>
</svg>
